<svg width="1731" height="400" viewBox="0 0 1731 400" fill="none" xmlns="http://www.w3.org/2000/svg">
<g clip-path="url(#clip0_6696_9039)">
<path fill-rule="evenodd" clip-rule="evenodd" d="M57.9607 61.0995C100.422 -31.69 238.652 -5.91439 321.947 53.2892C449.492 141.709 447.474 321.35 443 380.576C442.15 391.83 432.665 400 421.379 400H32.2985C19.1525 400 7.79096 390.527 5.81501 377.53C-18.0693 220.434 36.8052 190.28 76.3952 160.095C58.0076 130.763 43.2515 108.764 57.9607 61.0995Z" fill="#34D399"/>
<path fill-rule="evenodd" clip-rule="evenodd" d="M57.9607 61.0995C100.422 -31.69 238.652 -5.91439 321.947 53.2892C449.492 141.709 447.474 321.35 443 380.576C442.15 391.83 432.665 400 421.379 400H32.2985C19.1525 400 7.79096 390.527 5.81501 377.53C-18.0693 220.434 36.8052 190.28 76.3952 160.095C58.0076 130.763 43.2515 108.764 57.9607 61.0995Z" fill="url(#paint0_radial_6696_9039)"/>
<path d="M216.504 132.598C188.289 132.598 180.073 164.752 180.072 204.418C180.072 244.085 188.289 276.244 216.504 276.244C244.718 276.242 252.932 244.084 252.932 204.418C252.931 164.753 244.718 132.6 216.504 132.598Z" fill="white"/>
<path d="M332.419 132.598C304.204 132.598 295.986 164.752 295.986 204.418C295.986 244.085 304.203 276.244 332.419 276.244C360.635 276.244 368.851 244.085 368.851 204.418C368.851 164.752 360.634 132.598 332.419 132.598Z" fill="white"/>
<path fill-rule="evenodd" clip-rule="evenodd" d="M1446.06 104.34C1469.76 104.34 1490.94 109.993 1509.52 121.363C1528.05 132.554 1542.44 148.067 1552.65 167.839L1553.13 168.768C1563.18 188.316 1568.17 210.215 1568.17 234.403C1568.17 238.706 1567.93 244.158 1567.46 250.739L1567.27 253.433H1376.19C1377.72 262.427 1380.59 270.723 1384.77 278.34L1385.4 279.444C1391.94 290.763 1400.78 299.59 1411.94 305.972C1423.63 312.41 1436.77 315.654 1451.43 315.654C1466.12 315.654 1478.43 312.476 1488.48 306.269C1498.74 299.869 1506.64 291.02 1512.17 279.651L1513.35 277.218L1561.04 296.452L1559.7 299.24C1549.96 319.523 1535.64 335.531 1516.77 347.204V347.206C1498.01 358.75 1475.96 364.467 1450.73 364.467C1425.97 364.467 1403.58 358.906 1383.63 347.734L1383.62 347.728L1383.6 347.721C1363.83 336.397 1348.26 320.748 1336.94 300.82V300.813L1336.93 300.805C1325.76 280.863 1320.2 258.708 1320.2 234.403C1320.2 209.802 1325.68 187.569 1336.69 167.775C1347.69 148.013 1362.7 132.515 1381.7 121.337C1400.88 109.992 1422.36 104.34 1446.06 104.34ZM1446.06 153.152C1432.36 153.152 1420.11 156.456 1409.22 163.021C1398.48 169.587 1390.04 178.683 1383.89 190.378C1381.48 195.071 1379.55 200.052 1378.11 205.321H1510.61C1509.55 197.271 1507 189.86 1502.94 183.061L1502.93 183.053V183.044C1497.44 173.701 1489.81 166.438 1479.99 161.23L1479.98 161.222L1479.96 161.214C1470.16 155.865 1458.88 153.152 1446.06 153.152Z" fill="#18181B"/>
<path d="M1671.93 111.375H1730.6V156.214H1671.93V278.345C1671.93 290.625 1674.59 299.029 1679.33 304.183C1684.19 309.303 1691.93 312.144 1703.16 312.144C1710.96 312.144 1718.94 310.944 1727.11 308.524L1730.84 307.42V358.052L1728.84 358.708C1717.21 362.532 1705.92 364.463 1694.98 364.463C1679.29 364.463 1665.53 361.179 1653.8 354.499L1653.78 354.484C1642.04 347.637 1633.08 337.846 1626.92 325.197C1620.76 312.565 1617.74 297.697 1617.74 280.683V156.214H1577.07V111.375H1617.74V57.918H1671.93V111.375Z" fill="#18181B"/>
<path d="M703.62 44.4648C725.972 44.4649 746.603 48.3399 765.476 56.1289C784.63 63.619 801.118 74.7116 814.908 89.4006C828.74 104.135 838.925 122.142 845.498 143.354L846.355 146.121L794.29 162.33L793.34 159.737C785.873 139.346 774.58 123.387 759.512 111.73C744.527 100.138 726.389 94.2875 704.941 94.2874C685.146 94.2874 667.451 98.7287 651.786 107.556C636.427 116.377 624.18 128.892 615.035 145.175C606.217 161.396 601.75 180.705 601.75 203.201C601.751 225.701 606.073 245.171 614.614 261.7C623.469 277.975 635.574 290.638 650.948 299.75C666.302 308.557 683.834 312.994 703.62 312.994C723.269 312.994 741.488 307.31 758.339 295.885C775.481 284.169 788.03 268.766 796.029 249.624L796.974 247.365L850.009 259.643L849 262.666C841.825 284.191 830.739 302.491 815.724 317.506L815.703 317.527C800.756 332.175 783.557 343.391 764.126 351.164L764.108 351.171L764.09 351.178C744.68 358.643 724.517 362.377 703.62 362.377C681.844 362.377 661.226 358.497 641.793 350.724L641.785 350.721L641.779 350.718C622.662 342.952 605.768 332.04 591.119 317.988L591.108 317.978L591.097 317.968C576.439 303.609 564.928 286.71 556.566 267.299L556.559 267.282L556.551 267.264C548.466 247.799 544.443 226.433 544.443 203.201C544.443 179.971 548.466 158.744 556.558 139.564L556.562 139.553L556.566 139.544C564.93 120.128 576.447 103.366 591.119 89.293C605.765 74.9506 622.659 63.8908 641.779 56.1232L641.785 56.1204L641.793 56.1176C661.226 48.3444 681.844 44.4648 703.62 44.4648Z" fill="#18181B"/>
<path fill-rule="evenodd" clip-rule="evenodd" d="M987.004 107.855C1007.45 107.855 1025.48 112.972 1040.97 123.287L1041.69 123.761C1053.21 131.375 1062.34 141.217 1069.06 153.244V111.376H1125.49V359.294H1069.06V316.571C1062.2 328.893 1052.85 339.023 1041 346.921C1025.5 357.251 1007.47 362.375 987.004 362.376C965.38 362.376 945.642 357.113 927.856 346.562L927.831 346.547L927.806 346.532C910.342 335.692 896.359 320.791 885.861 301.896L885.848 301.872L885.835 301.847C875.598 282.579 870.529 260.233 870.529 234.895C870.529 209.559 875.598 187.351 885.844 168.366L885.848 168.359L885.852 168.352C896.35 149.155 910.343 134.236 927.838 123.679L927.856 123.668C945.642 113.117 965.38 107.855 987.004 107.855ZM998.449 157.237C986.64 157.237 975.233 160.182 964.195 166.12L963.202 166.68C952.998 172.554 944.595 181.078 938.002 192.34L937.994 192.353L937.986 192.367C931.281 203.543 927.835 217.665 927.835 234.895C927.835 251.803 931.269 266.096 938.002 277.891C944.806 289.515 953.541 298.22 964.191 304.107C975.23 310.047 986.638 312.993 998.449 312.993C1010.57 312.993 1021.98 310.038 1032.7 304.11C1043.36 298.223 1052.09 289.517 1058.9 277.891C1065.63 266.095 1069.06 251.803 1069.06 234.895C1069.06 217.665 1065.62 203.544 1058.91 192.367L1058.9 192.353V192.34C1052.09 180.714 1043.36 172.007 1032.7 166.12C1021.98 160.192 1010.57 157.237 998.449 157.237Z" fill="#18181B"/>
<path d="M1286.75 104.34C1295.53 104.34 1304.08 105.968 1312.36 109.215L1314.2 109.937V162.859L1310.42 161.666C1301.81 158.948 1293.15 157.593 1284.42 157.593C1271.67 157.593 1260.97 160.736 1252.18 166.887V166.893C1243.54 172.892 1236.77 181.89 1231.95 194.095L1231.94 194.106C1227.13 206.139 1224.67 220.868 1224.67 238.377V359.297H1170.71V111.379H1224.67V142.427C1230.95 131.718 1238.85 122.996 1248.39 116.318L1248.4 116.312L1248.41 116.307C1259.95 108.338 1272.76 104.34 1286.75 104.34Z" fill="#18181B"/>
</g>
<defs>
<radialGradient id="paint0_radial_6696_9039" cx="0" cy="0" r="1" gradientTransform="matrix(-362.42 0 -0.406802 -262.298 265.985 400.42)" gradientUnits="userSpaceOnUse">
<stop stop-color="#BEF264"/>
<stop offset="1" stop-color="#BEF264" stop-opacity="0"/>
</radialGradient>
<clipPath id="clip0_6696_9039">
<rect width="1731" height="400" fill="white"/>
</clipPath>
</defs>
</svg>
