<svg width="1268" height="332" viewBox="0 0 1268 332" fill="none" xmlns="http://www.w3.org/2000/svg">
<g clip-path="url(#clip0_6700_9066)">
<mask id="mask0_6700_9066" style="mask-type:luminance" maskUnits="userSpaceOnUse" x="0" y="0" width="1268" height="332">
<path d="M1267.64 0H0V332H1267.64V0Z" fill="white"/>
</mask>
<g mask="url(#mask0_6700_9066)">
<path fill-rule="evenodd" clip-rule="evenodd" d="M136.224 0C143.634 0 151.439 0.238285 153.488 0.715007C155.616 1.1122 160.978 2.2244 165.549 3.17784C170.121 4.13114 177.374 6.11725 181.71 7.62664C186.047 9.13619 193.299 12.3139 197.87 14.6178C202.443 16.9217 209.38 20.9735 213.244 23.5951C217.107 26.2168 223.335 31.063 227.04 34.2407C230.745 37.498 236.342 43.1386 239.494 46.793C242.648 50.5269 247.458 56.7236 250.059 60.6959C252.66 64.6682 256.681 71.5798 258.966 76.1877C261.252 80.7954 264.406 88.1043 265.903 92.4741C267.402 96.8429 269.373 103.835 270.24 107.965C271.107 112.097 272.211 119.008 272.684 123.219C273.156 127.509 273.551 134.024 273.551 137.757C273.551 141.491 273.156 148.006 272.684 152.216C272.211 156.506 271.107 163.418 270.24 167.55C269.373 171.68 267.402 178.672 265.903 183.041C264.406 187.411 261.252 194.72 258.966 199.327C256.681 203.936 252.66 210.926 250.059 214.819C247.458 218.711 242.648 224.987 239.494 228.722C236.263 232.456 230.666 238.097 227.04 241.273C223.335 244.452 217.107 249.297 213.244 251.92C209.38 254.541 202.443 258.593 197.87 260.896C193.299 263.201 186.047 266.379 181.71 267.888C177.374 269.397 170.437 271.383 166.338 272.258C162.238 273.132 155.381 274.244 151.123 274.721C146.945 275.196 140.481 275.595 136.775 275.595C133.07 275.595 126.606 275.196 122.349 274.721C118.171 274.244 111.312 273.132 107.213 272.258C103.114 271.383 96.1763 269.397 91.8406 267.888C87.5048 266.379 80.2521 263.201 75.6798 260.896C71.1075 258.593 64.1702 254.541 60.3073 251.92C56.3656 249.297 50.2167 244.452 46.5115 241.273C42.8852 238.097 37.2881 232.456 34.056 228.722C30.9026 224.987 26.0937 218.711 23.4923 214.819C20.8908 210.926 16.8703 203.936 14.5841 199.327C12.298 194.72 9.14464 187.411 7.64681 183.041C6.14899 178.672 4.17816 171.68 3.31099 167.55C2.44382 163.418 1.34016 156.506 0.867164 152.216C0.394165 148.006 0 141.491 0 137.757C0 134.024 0.394165 127.509 0.867164 123.219C1.34016 119.008 2.44382 112.097 3.31099 107.965C4.17816 103.835 6.14899 96.8429 7.64681 92.4741C9.14464 88.1043 12.298 80.7954 14.5841 76.1877C16.8703 71.5798 20.8908 64.6682 23.4923 60.6959C26.0937 56.7236 30.9026 50.5269 34.056 46.793C37.2881 43.059 42.8852 37.4185 46.5115 34.2407C50.2167 31.063 56.3656 26.2168 60.3073 23.5951C64.1702 20.9735 71.1075 16.9217 75.6798 14.6178C80.2521 12.3139 87.5048 9.13619 91.8406 7.62664C96.1763 6.11725 103.271 4.13114 107.607 3.25722C111.943 2.38331 117.067 1.27111 119.038 0.873915C121.009 0.476722 128.735 0.0793782 136.145 0H136.224ZM104.927 36.4652C100.827 37.7363 94.4421 40.2785 90.737 42.1057C87.0317 43.8536 80.804 47.5875 76.9411 50.2091C72.9994 52.9102 66.4563 58.5509 62.357 62.682C58.2577 66.8926 53.6853 71.977 52.2663 74.0426L49.7437 77.7764C60.938 86.7537 67.1659 90.7265 72.9994 93.6647C78.6754 96.526 85.6127 99.3057 90.3428 100.578C97.5165 102.484 99.4874 102.722 112.416 102.722C125.345 102.722 127.316 102.484 134.489 100.578C138.825 99.3857 145.605 96.8429 149.468 95.0154C153.33 93.1094 158.848 90.0109 161.687 88.1044C164.524 86.1182 169.727 81.9076 173.354 78.571L179.897 72.6126L201.497 94.3801C192.273 104.628 188.096 109.872 186.125 112.732C184.233 115.592 181.159 121.153 179.266 125.046C177.454 128.938 174.931 135.771 173.748 140.14C171.857 147.37 171.62 149.356 171.62 162.386C171.62 175.414 171.857 177.4 173.748 184.63C175.009 189.397 177.769 196.387 180.606 202.108C183.524 207.986 187.465 214.262 190.855 218.633L196.373 225.544C202.128 221.572 207.174 216.964 211.351 212.833C215.451 208.701 221.049 202.028 223.65 198.136C226.33 194.243 229.798 188.285 231.454 185.027C233.109 181.77 235.554 175.494 236.973 171.125C238.47 166.755 240.205 159.763 240.836 155.633C241.545 151.422 242.096 143.477 242.096 137.757C242.096 132.038 241.545 124.093 240.836 119.882C240.205 115.752 238.47 108.76 236.973 104.39C235.554 100.021 233.109 93.7447 231.454 90.4877C229.798 87.2304 226.961 82.2254 225.069 79.3654C223.255 76.5053 219.472 71.5004 216.711 68.2431C213.953 64.9858 209.223 60.1397 206.148 57.5975C203.152 55.0553 198.186 51.2419 195.19 49.1763C192.116 47.1108 186.991 44.0919 183.76 42.4236C180.528 40.7553 174.3 38.2924 169.964 36.8624C165.629 35.353 158.691 33.6052 154.591 32.9696C150.019 32.1752 142.846 31.6985 136.066 31.778C129.996 31.778 122.191 32.3341 118.723 32.9696C115.254 33.6052 109.026 35.1146 104.927 36.4652ZM32.7157 120.279C32.0851 123.776 31.6121 131.64 31.6121 137.757C31.6121 144.192 32.1639 151.899 32.8734 156.029C33.5041 159.923 35.2383 166.755 36.6573 171.125C38.1553 175.494 40.5991 181.77 42.2545 185.027C43.91 188.285 46.6692 193.21 48.4824 195.99C50.2956 198.691 51.8721 200.916 52.1088 200.916C52.3452 200.916 67.1659 186.139 85.061 168.185L117.54 135.375C103.193 134.421 96.0188 133.625 92.3135 132.99C88.6084 132.355 82.5382 130.926 78.6754 129.814C74.8915 128.701 68.5059 126.397 64.4854 124.649C60.5438 122.902 54.7101 119.962 51.7146 118.135C48.64 116.307 43.9889 113.051 41.2297 110.985C38.5494 108.919 36.1844 107.171 35.9479 107.171C35.7902 107.171 35.2383 108.68 34.6866 110.588C34.2135 112.415 33.3464 116.784 32.7157 120.279ZM106.346 190.191C87.5836 209.178 74.1032 223.478 74.5761 223.797C75.0491 224.114 77.4141 225.703 79.9368 227.372C82.3807 228.961 87.0317 231.582 90.1063 233.171C93.2596 234.76 99.4085 237.223 103.744 238.732C108.08 240.161 114.781 241.91 118.723 242.546C122.822 243.259 130.469 243.816 136.854 243.816C142.924 243.816 150.729 243.339 154.197 242.704C157.667 242.069 162.002 241.195 163.815 240.718C165.707 240.241 167.206 239.684 167.206 239.447C167.206 239.209 165.47 236.825 163.421 234.123C161.372 231.344 158.139 226.656 156.327 223.558C154.513 220.46 151.596 214.661 149.862 210.687C148.127 206.635 145.841 200.201 144.738 196.387C143.634 192.495 142.215 186.139 141.584 182.247C140.875 178.353 140.086 171.045 139.692 166.119L138.983 157.142L106.346 190.191ZM1130.47 73.0098L1134.49 83.576C1136.69 89.3755 1147.57 117.658 1158.77 146.417C1169.88 175.255 1179.34 198.93 1179.74 199.088C1180.21 199.168 1191.17 170.886 1227.83 73.0892L1267.64 73.0098L1265.82 78.0149C1264.8 80.716 1242.57 138.711 1216.4 206.874C1190.3 275.038 1168.54 331.126 1168.07 331.443C1167.6 331.762 1159.48 332 1150.02 332C1137.01 332 1132.75 331.762 1132.44 331.046C1132.28 330.491 1138.59 312.139 1160.9 250.569L1156.01 238.652C1153.41 232.137 1137.32 192.337 1120.38 150.31C1103.43 108.203 1089.47 73.6454 1089.47 73.407C1089.47 73.2481 1098.7 73.0098 1130.47 73.0098ZM435.001 8.73899C446.196 8.65947 451.478 9.05666 458.65 10.3278C463.775 11.2017 471.659 13.1878 476.151 14.6973C480.724 16.2863 487.267 18.9874 490.737 20.8146C494.205 22.6418 499.88 26.2962 503.35 28.918C506.818 31.4602 512.021 35.9885 514.86 38.8485C517.697 41.7086 522.112 46.8725 524.712 50.368C527.314 53.8637 531.256 60.2986 533.464 64.6682C535.671 69.0376 538.509 75.2342 539.77 78.4121C541.032 81.5104 541.819 84.291 541.584 84.4499C541.426 84.6087 532.596 87.1511 522.112 90.0111C511.627 92.871 502.64 95.2538 502.167 95.2538C501.773 95.2538 501.379 94.8569 501.379 94.3016C501.379 93.7447 500.196 90.4083 498.777 86.9126C497.359 83.4171 494.52 78.0149 492.471 74.837C490.5 71.6592 486.795 66.9719 484.272 64.5093C481.749 61.967 477.965 58.7097 475.758 57.2003C473.63 55.6909 469.688 53.4663 467.086 52.2748C464.485 51.0037 459.518 49.2558 456.049 48.3025C450.767 46.8725 447.536 46.5547 435.948 46.4752C425.384 46.4752 420.89 46.793 416.633 47.8258C413.637 48.6202 409.223 49.9708 406.778 50.9241C404.414 51.8774 400.315 53.9431 397.713 55.4525C395.112 56.962 389.987 61.252 386.282 64.9858C381.868 69.5143 378.398 73.9631 376.112 78.1738C374.141 81.6693 371.383 87.9454 370.043 92.0772C368.624 96.2875 366.969 102.404 366.258 105.82C365.629 109.157 364.682 116.546 364.209 122.107C363.499 129.575 363.578 135.136 364.209 143.318C364.682 149.436 365.786 157.539 366.573 161.194C367.363 164.927 369.175 171.045 370.515 174.7C371.855 178.433 374.063 183.438 375.403 185.822C376.743 188.285 379.345 192.177 381.237 194.561C383.05 197.024 386.125 200.36 388.016 202.186C389.908 203.936 393.219 206.557 395.349 208.066C397.555 209.575 401.575 211.799 404.257 212.992C406.937 214.262 412.297 216.011 416.081 216.964C421.678 218.394 425.304 218.711 435.158 218.711C443.436 218.711 449.191 218.314 452.896 217.44C455.97 216.805 460.937 215.216 463.932 214.024C467.008 212.833 471.422 210.529 473.787 209.02C476.231 207.511 480.252 204.252 482.773 201.79C485.296 199.327 488.923 195.196 490.815 192.574C492.708 189.952 495.623 184.788 497.359 181.055C499.093 177.4 500.748 173.349 500.985 172.157C501.22 170.965 501.93 169.933 502.56 169.933C503.271 169.933 512.179 172.316 522.506 175.175C532.833 178.037 541.347 180.499 541.426 180.578C541.584 180.578 540.716 183.359 539.533 186.616C538.43 189.952 536.222 195.116 534.725 198.136C533.227 201.234 529.994 206.795 527.63 210.449C525.186 214.184 519.983 220.619 515.963 224.749C511.942 228.961 505.871 234.362 502.482 236.825C499.093 239.287 493.101 242.943 489.16 244.928C485.296 246.914 479.462 249.377 476.151 250.489C472.92 251.602 466.534 253.271 461.961 254.303C454.867 255.812 451.319 256.05 435.948 256.13C422.073 256.13 416.633 255.812 410.72 254.7C406.622 253.906 399.526 252.079 394.953 250.489C390.461 248.98 383.602 246.041 379.739 243.975C375.877 241.91 369.884 238.097 366.338 235.396C362.79 232.694 357.114 227.53 353.725 223.875C350.255 220.222 345.604 214.342 343.318 210.847C341.032 207.351 337.799 201.631 336.065 198.136C334.332 194.64 331.73 188.602 330.39 184.63C328.971 180.736 327.157 174.461 326.29 170.726C325.423 167.073 324.162 160.24 323.609 155.633C322.979 151.025 322.506 140.539 322.506 132.196C322.506 123.457 322.979 113.764 323.609 109.157C324.24 104.788 325.265 98.7504 325.974 95.6522C326.685 92.6325 328.34 86.7537 329.681 82.5432C331.021 78.4121 333.779 71.6592 335.829 67.4487C337.879 63.3175 341.426 57.0414 343.791 53.5459C346.077 50.0502 350.728 44.4097 353.96 40.9935C357.271 37.498 362.002 32.9696 364.602 30.9041C367.204 28.8384 372.17 25.4223 375.64 23.3568C379.108 21.2912 384.785 18.4311 388.253 17.0013C391.722 15.5713 397.24 13.6645 400.472 12.7112C403.783 11.8373 409.617 10.5662 413.48 9.93057C417.501 9.29509 426.881 8.81837 435.001 8.73899ZM569.964 8.65947H609.38V251.76H569.964V8.65947ZM1031.14 8.65947H1070.55V251.76H1031.14V8.65947ZM919.43 68.3226C928.26 68.2431 932.989 68.6404 939.139 69.9115C943.553 70.7854 949.86 72.6126 953.092 73.9631C956.403 75.2342 961.685 77.9353 964.917 80.001C968.387 82.0665 973.904 86.7537 977.924 90.885C982.497 95.4923 986.36 100.418 988.725 104.47C990.774 107.886 993.297 112.971 994.4 115.752C995.583 118.452 997.396 123.854 998.501 127.668C999.604 131.481 1001.02 138.631 1001.65 143.557C1002.28 148.482 1002.76 156.983 1002.76 162.386C1002.76 169.536 1002.52 172.476 1001.81 172.951C1001.26 173.269 972.248 173.428 873.865 173.031L874.496 177.798C874.811 180.499 876.073 185.583 877.254 189.237C878.437 192.812 880.724 197.818 882.379 200.36C884.035 202.823 886.873 206.398 888.764 208.304C890.735 210.132 893.967 212.595 896.095 213.785C898.224 214.978 902.719 216.725 906.186 217.599C910.287 218.633 915.016 219.188 919.589 219.188C924.24 219.188 928.969 218.633 932.989 217.599C936.459 216.725 940.951 215.058 942.844 214.024C944.815 212.912 948.047 210.687 949.94 209.02C951.91 207.351 955.3 203.299 957.428 200.122C959.557 196.864 961.291 194.084 961.369 194.004C961.369 193.924 967.756 195.832 975.559 198.215C983.364 200.599 992.194 203.299 1000.39 205.683L997.396 211.879C995.662 215.216 992.666 220.222 990.696 223.001C988.646 225.703 985.177 229.835 982.891 232.137C980.606 234.442 976.427 237.937 973.588 240.003C970.83 241.989 966.179 244.928 963.34 246.438C960.582 248.027 955.063 250.409 951.121 251.76C947.258 253.111 941.031 254.78 937.325 255.415C933.699 256.05 926.368 256.527 921.164 256.527C915.962 256.527 908.394 255.972 904.216 255.335C900.117 254.621 893.652 253.032 889.869 251.76C886.084 250.489 881.117 248.424 878.831 247.311C876.545 246.121 872.209 243.498 869.135 241.433C866.14 239.367 861.567 235.712 859.044 233.41C856.442 231.025 852.265 226.26 849.663 222.763C847.062 219.268 843.199 212.833 841.071 208.463C838.941 204.094 836.498 198.215 835.71 195.355C834.843 192.574 833.581 187.013 832.95 183.041C832.163 178.672 831.689 171.203 831.689 163.576C831.769 156.665 832.241 148.164 832.872 144.114C833.503 140.22 834.921 133.785 836.104 129.814C837.207 125.92 839.494 119.802 841.228 116.307C842.883 112.812 845.8 107.648 847.614 104.788C849.505 102.007 853.527 97.0029 856.679 93.6647C859.753 90.4083 864.878 85.8799 868.111 83.6554C871.263 81.431 876.151 78.4914 878.831 77.141C881.511 75.7109 886.321 73.7248 889.473 72.692C892.627 71.5798 897.988 70.2293 901.457 69.5937C905.003 68.9581 912.967 68.402 919.43 68.3226ZM903.034 105.582C900.432 106.536 896.884 108.125 895.15 109.077C893.415 110.111 890.263 112.732 888.055 114.877C885.927 117.102 882.851 121.313 881.276 124.331C879.699 127.351 877.65 132.355 876.703 135.375C875.836 138.473 875.048 141.412 875.048 141.968C875.048 142.763 884.271 142.921 918.406 142.921C959.242 142.921 961.763 142.841 961.763 141.571C961.763 140.776 961.054 137.201 960.188 133.625C959.32 129.972 957.586 124.888 956.246 122.265C954.984 119.644 952.383 115.83 950.57 113.844C948.756 111.858 945.761 109.316 944.027 108.363C942.291 107.33 939.296 105.9 937.325 105.185C935.434 104.47 930.94 103.676 927.472 103.358C924.003 103.039 918.169 103.039 914.464 103.358C910.837 103.676 905.634 104.628 903.034 105.582ZM643.988 73.0098H683.562L683.878 122.503C684.035 162.863 684.35 173.349 685.375 179.466C686.006 183.676 687.267 188.999 688.135 191.383C688.923 193.846 690.5 197.579 691.603 199.724C692.706 201.948 695.308 205.683 697.515 208.066C699.643 210.529 703.191 213.388 705.32 214.581C707.37 215.773 711.468 217.282 714.229 217.997C717.066 218.633 721.875 219.188 724.871 219.188C727.945 219.188 733.227 218.473 736.696 217.599C740.164 216.725 744.658 215.058 746.549 213.865C748.52 212.673 751.752 210.132 753.645 208.066C755.615 206.08 758.374 202.266 759.714 199.724C761.054 197.102 762.79 193.05 763.42 190.588C764.13 188.205 765.233 181.612 765.864 175.891C766.81 167.867 767.047 155.474 767.047 73.0098H806.463V251.76H771.776L771.855 242.863C771.855 237.937 771.698 233.726 771.461 233.488C771.224 233.33 769.018 234.997 766.494 237.382C763.971 239.684 759.479 243.259 756.403 245.247C753.408 247.311 747.89 250.093 744.184 251.522C740.558 252.872 734.33 254.621 730.389 255.415C724.871 256.447 720.535 256.607 710.287 256.289C700.196 255.972 696.017 255.495 691.366 254.223C688.135 253.271 682.695 250.966 679.227 249.139C674.733 246.834 671.028 243.975 666.534 239.447C662.355 235.396 658.809 230.867 656.444 226.735C654.393 223.24 651.713 217.52 650.451 214.024C649.191 210.529 647.377 204.094 646.431 199.724C644.619 191.938 644.619 190.826 644.303 132.435L643.988 73.0098Z" fill="black"/>
</g>
</g>
<defs>
<clipPath id="clip0_6700_9066">
<rect width="1267.64" height="332" fill="white"/>
</clipPath>
</defs>
</svg>
