<svg width="1199" height="230" viewBox="62 96 1199 230" fill="none" xmlns="http://www.w3.org/2000/svg">
<path d="M200.25 165.596H194.97C159.611 165.596 130.947 136.932 130.947 101.573C130.947 98.657 133.311 96.293 136.228 96.293H186.39C194.045 96.293 200.25 102.499 200.25 110.154V165.596Z" fill="black"/>
<path d="M200.247 168.982C200.247 243.665 139.704 304.209 65.0212 304.209C63.1542 304.209 61.6406 302.694 61.6406 300.827V179.462C61.6406 171.807 67.8462 165.602 75.5012 165.602H200.247V168.982Z" fill="black"/>
<path d="M148.275 216.464C148.275 196.028 164.842 179.461 185.278 179.461H187.299C187.755 179.461 188.125 179.831 188.125 180.287C188.125 201.839 170.653 219.311 149.101 219.311C148.645 219.311 148.275 218.941 148.275 218.484V216.464Z" fill="#1A1A1A"/>
<path d="M153.826 109.367C172.392 109.367 187.443 124.418 187.442 142.984V144.819C187.442 145.234 187.106 145.57 186.692 145.57C167.113 145.57 151.24 129.697 151.24 110.118C151.24 109.703 151.576 109.367 151.991 109.367H153.826Z" fill="#1A1A1A"/>
<path d="M200.25 234.898H205.53C240.889 234.898 269.554 263.564 269.554 298.922C269.554 301.839 267.188 304.202 264.273 304.202H214.111C206.456 304.202 200.25 297.996 200.25 290.343V234.898Z" fill="black"/>
<path d="M200.25 231.518C200.25 156.835 260.793 96.293 335.475 96.293C337.344 96.293 338.856 97.8066 338.856 99.6736V221.039C338.856 228.694 332.651 234.899 324.996 234.899H200.25V231.518Z" fill="black"/>
<path d="M305.934 195.053C305.934 198.881 302.831 201.983 299.003 201.983H250.49C250.49 172.32 274.538 148.273 304.201 148.273H304.783C305.418 148.273 305.934 148.788 305.934 149.423V195.053Z" fill="#1A1A1A"/>
<path d="M438.256 273.568V269.592L460.021 266.871H470.066V273.568H438.256ZM453.534 273.568C453.812 267.987 454.022 261.501 454.162 254.106C454.302 246.711 454.37 239.038 454.37 231.084C454.37 222.994 454.37 215.319 454.37 208.064V198.856C454.37 191.601 454.37 184.067 454.37 176.254C454.37 168.441 454.302 160.977 454.162 153.861C454.022 146.606 453.812 140.188 453.534 134.608H476.973C476.693 140.188 476.485 146.606 476.345 153.861C476.205 161.116 476.067 168.65 475.927 176.463C475.927 184.137 475.927 191.601 475.927 198.856V208.064C475.927 215.319 475.927 222.994 475.927 231.084C476.067 239.038 476.205 246.711 476.345 254.106C476.485 261.501 476.693 267.987 476.973 273.568H453.534ZM465.464 273.568V268.335H525.525L517.99 271.056L532.222 234.223H535.989L533.479 273.568H465.464ZM465.464 205.344V199.902H503.132V205.344H465.464ZM507.109 225.852L500.202 204.716V200.74L507.109 179.603H510.875V225.852H507.109ZM438.256 138.584V134.608H470.066V141.305H460.021L438.256 138.584ZM528.874 171.859L514.434 137.119L522.177 139.84H463.579V134.608H530.13L532.64 171.859H528.874ZM541.657 273.568V269.592L560.702 266.871H569.911L588.535 269.592V273.568H541.657ZM554.423 273.568C554.703 270.22 554.843 265.965 554.843 260.802C554.981 255.5 555.051 250.129 555.051 244.688C555.191 239.108 555.261 234.015 555.261 229.41V221.457C555.261 217.272 555.261 213.575 555.261 210.366C555.261 207.157 555.191 204.158 555.051 201.367C555.051 198.437 554.981 195.508 554.843 192.578L540.821 189.02V185.672L573.677 175.626L575.77 177.51V197.809V198.228V229.41C575.77 234.015 575.77 239.108 575.77 244.688C575.91 250.129 576.05 255.5 576.188 260.802C576.328 265.965 576.538 270.22 576.816 273.568H554.423ZM601.301 273.568V269.592L620.138 266.871H629.345L647.971 269.592V273.568H601.301ZM613.649 273.568C613.929 270.22 614.137 265.965 614.277 260.802C614.417 255.5 614.487 250.129 614.487 244.688C614.625 239.108 614.695 234.015 614.695 229.41V208.692C614.695 200.879 613.509 195.577 611.138 192.787C608.766 189.996 605 188.601 599.837 188.601C596.906 188.601 593.908 189.159 590.838 190.276C587.769 191.392 584.699 193.066 581.63 195.298C578.7 197.391 575.7 199.972 572.631 203.042L571.585 198.856H572.839C575.91 194.391 579.328 190.415 583.095 186.927C587.001 183.439 591.186 180.719 595.65 178.765C600.255 176.673 605.07 175.626 610.092 175.626C618.043 175.626 624.182 178.138 628.509 183.16C632.973 188.183 635.206 196.554 635.206 208.273V229.41C635.206 234.015 635.206 239.108 635.206 244.688C635.343 250.129 635.483 255.5 635.624 260.802C635.764 265.965 635.972 270.22 636.252 273.568H613.649ZM690.135 276.288C683.158 276.288 676.882 274.544 671.301 271.056C665.72 267.429 661.256 262.059 657.907 254.942C654.697 247.827 653.092 238.968 653.092 228.364C653.092 217.342 654.907 207.925 658.535 200.112C662.162 192.159 666.974 186.09 672.975 181.904C679.114 177.719 685.881 175.626 693.274 175.626C697.042 175.626 700.599 176.324 703.947 177.719C707.436 179.114 710.644 181.277 713.574 184.207C716.643 187.137 719.365 191.113 721.735 196.135H724.456L722.574 200.53C718.249 195.368 714.41 191.741 711.062 189.648C707.714 187.555 703.599 186.509 698.717 186.509C694.39 186.509 690.345 187.974 686.577 190.903C682.95 193.694 680.02 198.089 677.788 204.088C675.695 210.087 674.649 217.831 674.649 227.318C674.649 236.387 675.625 243.78 677.578 249.501C679.672 255.082 682.532 259.198 686.159 261.849C689.925 264.359 694.112 265.615 698.717 265.615C703.459 265.615 707.714 264.081 711.482 261.01C715.249 257.942 718.737 254.036 721.946 249.291L723.202 254.524H720.899C718.807 258.848 716.225 262.685 713.156 266.033C710.226 269.244 706.807 271.754 702.901 273.568C699.135 275.382 694.878 276.288 690.135 276.288ZM718.597 275.87V256.616V255.988V194.671L718.807 192.578V134.608L704.575 131.259V127.911L737.642 119.121L739.944 121.214L739.106 163.07V267.917L751.871 269.592V273.568L718.597 275.87ZM799.848 276.288C791.617 276.288 784.152 274.406 777.455 270.638C770.758 266.731 765.458 261.22 761.551 254.106C757.645 246.851 755.69 238.062 755.69 227.736C755.69 216.854 757.715 207.576 761.761 199.902C765.946 192.089 771.317 186.09 777.876 181.904C784.572 177.719 791.757 175.626 799.43 175.626C806.545 175.626 812.824 177.161 818.265 180.23C823.845 183.3 828.172 187.555 831.24 192.996C834.311 198.298 835.845 204.576 835.845 211.831C835.845 214.063 835.705 215.947 835.427 217.482C835.287 219.017 835.007 220.481 834.589 221.877H763.854V217.063H804.663C809.546 217.063 812.894 216.156 814.708 214.342C816.52 212.529 817.429 209.32 817.429 204.716C817.429 199.414 816.661 195.019 815.126 191.531C813.73 187.904 811.708 185.183 809.058 183.369C806.407 181.556 803.267 180.649 799.64 180.649C795.872 180.649 792.245 182.044 788.757 184.834C785.268 187.625 782.41 192.159 780.178 198.437C778.083 204.576 777.037 212.947 777.037 223.552C777.037 231.923 778.364 239.108 781.014 245.106C783.664 251.105 787.293 255.71 791.897 258.918C796.5 262.127 801.733 263.733 807.591 263.733C813.312 263.733 818.195 262.547 822.241 260.174C826.428 257.802 830.124 254.734 833.333 250.965L836.263 253.059C833.753 258.5 830.612 262.965 826.846 266.453C823.217 269.802 819.103 272.242 814.498 273.778C809.894 275.452 805.011 276.288 799.848 276.288ZM867.233 276.288C860.118 276.288 854.187 274.266 849.445 270.22C844.84 266.173 842.538 260.314 842.538 252.639C842.538 248.315 843.446 244.268 845.258 240.502C847.212 236.735 850.561 233.247 855.303 230.038C860.188 226.69 867.023 223.689 875.814 221.039C878.184 220.203 880.907 219.365 883.975 218.528C887.046 217.691 890.462 216.784 894.231 215.807C898.137 214.691 902.181 213.645 906.368 212.668V216.435C900.089 218.389 894.789 220.063 890.462 221.457C886.278 222.713 883.139 223.83 881.045 224.806C876.302 226.9 872.604 229.132 869.953 231.502C867.303 233.875 865.419 236.387 864.303 239.038C863.186 241.688 862.628 244.618 862.628 247.827C862.628 253.548 864.025 257.732 866.815 260.384C869.605 262.895 873.094 264.151 877.278 264.151C879.929 264.151 882.371 263.871 884.603 263.313C886.836 262.617 889.278 261.431 891.928 259.756C894.579 257.942 897.649 255.292 901.135 251.803L902.81 259.964H896.533C893.602 263.871 890.602 267.081 887.534 269.592C884.463 271.964 881.255 273.638 877.906 274.614C874.558 275.73 870.999 276.288 867.233 276.288ZM913.693 275.87C907.694 275.87 903.16 274.406 900.089 271.476C897.021 268.405 895.347 264.221 895.067 258.918V258.29V208.273C895.067 201.437 894.439 196.066 893.184 192.159C892.068 188.253 890.254 185.462 887.742 183.788C885.231 182.114 881.813 181.277 877.488 181.277C875.116 181.277 872.814 181.625 870.581 182.323C868.349 182.881 866.047 183.579 863.674 184.416L869.745 179.812L866.815 195.717C866.397 200.181 865.071 203.46 862.838 205.553C860.746 207.506 858.304 208.483 855.513 208.483C852.723 208.483 850.561 207.715 849.027 206.181C847.63 204.646 846.654 202.484 846.096 199.693C847.212 192.578 851.259 186.788 858.234 182.323C865.349 177.858 874.14 175.626 884.603 175.626C891.718 175.626 897.579 176.882 902.181 179.393C906.786 181.765 910.135 185.532 912.227 190.694C914.459 195.856 915.575 202.484 915.575 210.576V257.244C915.575 260.592 916.066 262.965 917.042 264.359C918.158 265.615 919.552 266.243 921.226 266.243C922.762 266.243 924.086 265.895 925.203 265.197C926.459 264.359 927.923 262.965 929.597 261.01L932.11 263.105C930.575 266.871 928.273 269.94 925.203 272.312C922.134 274.684 918.298 275.87 913.693 275.87ZM930.816 273.568V269.592L949.861 266.871H959.068L980.205 269.592V273.568H930.816ZM943.582 273.568C943.862 270.22 944 265.965 944 260.802C944.14 255.5 944.21 250.129 944.21 244.688C944.35 239.108 944.42 234.015 944.42 229.41V221.457C944.42 217.272 944.42 213.575 944.42 210.366C944.42 207.157 944.35 204.158 944.21 201.367C944.21 198.437 944.14 195.508 944 192.578L929.978 189.02V185.672L962.836 175.626L964.929 177.51V207.227V207.855V229.41C964.929 234.015 964.929 239.108 964.929 244.688C965.069 250.129 965.207 255.5 965.347 260.802C965.487 265.965 965.695 270.22 965.975 273.568H943.582ZM963.673 218.528L960.952 207.646H963.883C966.115 200.391 968.765 194.461 971.834 189.857C974.904 185.113 978.322 181.556 982.089 179.184C985.855 176.812 989.832 175.626 994.019 175.626C997.645 175.626 1000.72 176.533 1003.23 178.347C1005.88 180.021 1007.62 182.811 1008.46 186.718C1008.18 190.764 1006.78 193.833 1004.27 195.926C1001.76 198.019 998.901 199.065 995.693 199.065C993.04 199.065 990.6 198.437 988.368 197.182C986.136 195.926 984.043 193.833 982.089 190.903L977.904 185.253L984.809 185.044C980.903 187.136 976.856 191.182 972.672 197.182C968.625 203.042 965.627 210.157 963.673 218.528ZM1008.89 273.568V269.592L1027.94 266.871H1037.15L1055.77 269.592V273.568H1008.89ZM1021.66 273.568C1021.94 270.22 1022.08 265.965 1022.08 260.802C1022.22 255.5 1022.29 250.129 1022.29 244.688C1022.43 239.108 1022.5 234.015 1022.5 229.41V221.457C1022.5 215.18 1022.5 209.948 1022.5 205.762C1022.5 201.437 1022.36 197.042 1022.08 192.578L1008.06 189.02V185.672L1041.75 175.626L1043.84 177.51L1043.01 204.506V229.41C1043.01 234.015 1043.01 239.108 1043.01 244.688C1043.15 250.129 1043.29 255.5 1043.42 260.802C1043.56 265.965 1043.77 270.22 1044.05 273.568H1021.66ZM1032.54 156.582C1029.05 156.582 1026.06 155.466 1023.54 153.233C1021.03 150.862 1019.78 147.792 1019.78 144.025C1019.78 140.258 1021.03 137.258 1023.54 135.026C1026.06 132.654 1029.05 131.469 1032.54 131.469C1036.17 131.469 1039.17 132.654 1041.54 135.026C1044.05 137.258 1045.31 140.188 1045.31 143.816C1045.31 147.722 1044.05 150.862 1041.54 153.233C1039.17 155.466 1036.17 156.582 1032.54 156.582ZM1058.97 273.568V269.592L1078.02 266.871H1087.23L1105.85 269.592V273.568H1058.97ZM1071.74 273.568C1072.02 270.22 1072.16 265.965 1072.16 260.802C1072.3 255.5 1072.37 250.129 1072.37 244.688C1072.51 239.108 1072.58 234.015 1072.58 229.41V221.457C1072.58 217.272 1072.58 213.575 1072.58 210.366C1072.58 207.157 1072.51 204.158 1072.37 201.367C1072.37 198.437 1072.3 195.508 1072.16 192.578L1058.14 189.02V185.672L1090.99 175.626L1093.09 177.51V197.809V198.228V229.41C1093.09 234.015 1093.09 239.108 1093.09 244.688C1093.23 250.129 1093.36 255.5 1093.5 260.802C1093.64 265.965 1093.85 270.22 1094.13 273.568H1071.74ZM1118.62 273.568V269.592L1137.45 266.871H1146.66L1165.29 269.592V273.568H1118.62ZM1130.97 273.568C1131.25 270.22 1131.45 265.965 1131.59 260.802C1131.73 255.5 1131.8 250.129 1131.8 244.688C1131.94 239.108 1132.01 234.015 1132.01 229.41V208.692C1132.01 200.879 1130.83 195.577 1128.46 192.787C1126.08 189.996 1122.32 188.601 1117.15 188.601C1114.22 188.601 1111.22 189.159 1108.15 190.276C1105.08 191.392 1102.02 193.066 1098.95 195.298C1096.02 197.391 1093.02 199.972 1089.95 203.042L1088.9 198.856H1090.16C1093.23 194.391 1096.65 190.415 1100.41 186.927C1104.32 183.439 1108.5 180.719 1112.97 178.765C1117.57 176.673 1122.38 175.626 1127.41 175.626C1135.36 175.626 1141.5 178.138 1145.82 183.16C1150.29 188.183 1152.52 196.554 1152.52 208.273V229.41C1152.52 234.015 1152.52 239.108 1152.52 244.688C1152.66 250.129 1152.8 255.5 1152.94 260.802C1153.08 265.965 1153.29 270.22 1153.57 273.568H1130.97ZM1206.61 326.515C1196.99 326.515 1189.17 325.469 1183.17 323.377C1177.32 321.285 1173.06 318.424 1170.41 314.796C1167.9 311.307 1166.64 307.193 1166.64 302.448C1166.64 298.404 1167.83 294.845 1170.2 291.774C1172.57 288.846 1175.85 286.194 1180.04 283.824C1184.22 281.591 1188.9 279.497 1194.06 277.545L1194.89 278.591C1192.8 280.265 1190.71 282.009 1188.62 283.824C1186.66 285.776 1185.06 288.008 1183.8 290.52C1182.69 293.031 1182.13 296.239 1182.13 300.146C1182.13 304.61 1183.1 308.449 1185.06 311.657C1187.15 315.006 1190.15 317.516 1194.06 319.19C1198.1 321.004 1202.85 321.91 1208.29 321.91C1215.68 321.91 1221.89 320.726 1226.91 318.354C1231.94 315.982 1235.7 312.843 1238.22 308.937C1240.73 305.168 1241.98 301.054 1241.98 296.589C1241.98 291.426 1240.31 287.52 1236.96 284.87C1233.61 282.219 1228.45 280.893 1221.47 280.893H1199.29C1198.17 280.893 1196.78 280.823 1195.1 280.683C1193.57 280.683 1192.03 280.545 1190.5 280.265L1190.29 279.847C1184.85 279.289 1180.24 277.405 1176.48 274.196C1172.85 271.126 1171.04 266.801 1171.04 261.22C1171.04 256.058 1172.64 251.455 1175.85 247.409C1179.2 243.362 1183.59 239.316 1189.04 235.271V233.597L1191.96 237.363C1189.45 239.456 1187.57 241.758 1186.32 244.268C1185.06 246.641 1184.43 249.153 1184.43 251.803C1184.43 255.152 1185.69 257.662 1188.2 259.336C1190.71 261.01 1194.48 261.849 1199.5 261.849H1225.66C1232.91 261.849 1238.98 262.895 1243.86 264.987C1248.75 266.941 1252.45 269.802 1254.96 273.568C1257.47 277.475 1258.72 282.427 1258.72 288.426C1258.72 293.171 1257.61 297.775 1255.38 302.24C1253.28 306.842 1250.07 310.959 1245.75 314.588C1241.42 318.354 1235.98 321.285 1229.42 323.377C1223.01 325.469 1215.4 326.515 1206.61 326.515ZM1208.92 242.804C1201.94 242.804 1195.66 241.478 1190.08 238.827C1184.64 236.177 1180.31 232.341 1177.11 227.318C1174.04 222.295 1172.5 216.226 1172.5 209.111C1172.5 202.135 1174.11 196.135 1177.32 191.113C1180.66 186.09 1185.06 182.253 1190.5 179.603C1196.08 176.952 1202.22 175.626 1208.92 175.626C1213.38 175.626 1217.43 176.114 1221.05 177.091C1224.82 178.068 1228.17 179.463 1231.1 181.277C1234.17 183.09 1236.68 185.392 1238.63 188.183L1239.47 189.02C1241.56 191.671 1243.1 194.671 1244.08 198.019C1245.05 201.367 1245.54 205.064 1245.54 209.111C1245.54 216.087 1243.93 222.155 1240.73 227.318C1237.52 232.341 1233.12 236.177 1227.54 238.827C1221.96 241.478 1215.75 242.804 1208.92 242.804ZM1208.92 238.199C1212.4 238.199 1215.4 237.153 1217.92 235.061C1220.57 232.969 1222.59 229.758 1223.98 225.434C1225.38 221.109 1226.08 215.598 1226.08 208.901C1226.08 202.204 1225.38 196.763 1223.98 192.578C1222.59 188.392 1220.57 185.323 1217.92 183.369C1215.4 181.277 1212.4 180.23 1208.92 180.23C1205.57 180.23 1202.64 181.277 1200.13 183.369C1197.61 185.462 1195.59 188.671 1194.06 192.996C1192.66 197.321 1191.96 202.763 1191.96 209.32C1191.96 216.017 1192.66 221.527 1194.06 225.852C1195.59 230.038 1197.61 233.177 1200.13 235.271C1202.64 237.223 1205.57 238.199 1208.92 238.199ZM1235.49 192.159L1234.87 188.183H1235.7L1258.72 175.626L1260.61 177.3V192.159H1235.49Z" fill="black"/>
</svg>
