<?xml version="1.0" encoding="utf-8"?>
<!-- Generator: Adobe Illustrator 26.5.0, SVG Export Plug-In . SVG Version: 6.00 Build 0)  -->
<svg version="1.1" id="Ebene_1" xmlns="http://www.w3.org/2000/svg" xmlns:xlink="http://www.w3.org/1999/xlink" x="0px" y="0px"
	 viewBox="0 0 650 196.6" style="enable-background:new 0 0 650 196.6;" xml:space="preserve">
<g>
	<path fill="#4361ee" d="M67.9,66.1c15.3,0,29.4,8,37.4,17.5v-15h28.6v121.3h-28.6v-15.5c-8,9.9-22.1,18-37.4,18c-34.7,0-60.2-28.4-60.2-63.1
		S33.2,66.1,67.9,66.1z M36.4,129.2c0,18.9,15.5,34.4,34.4,34.4s34.4-15.5,34.4-34.4c0-18.9-15.5-34.4-34.4-34.4
		S36.4,110.3,36.4,129.2z"/>
	<path fill="#4361ee" d="M162,189.8V68.5h28.6v13.8c8.2-9.7,20.9-16.3,36.4-16.3v27.2c-1-0.2-2.2-0.2-3.2-0.2c-18.2,0-33.2,12.9-33.2,31.3v65.5H162
		z"/>
	<path fill="#4361ee" d="M245.5,68.5h28.6v13.1c9-9.5,22.1-15.5,36.4-15.5c18.4,0,33,8.5,40.8,22.8c10.9-13.8,23.8-22.8,43.2-22.8
		c28.1,0,47.5,19.9,47.5,50.7v73h-28.6v-66.9c0-20.4-10.7-29.8-26-29.8c-16.5,0-29.4,12.1-29.4,30.8v66h-28.6v-66.9
		c0-20.4-10.7-29.8-26-29.8c-16.5,0-29.4,12.1-29.4,31.3v65.5h-28.6V68.5z"/>
	<path fill="#4361ee" d="M484.4,12.7c9.5,0,17,7.8,17,17c0,9.5-7.5,17.2-17,17.2c-9.5,0-17-7.8-17-17.2C467.4,20.5,474.9,12.7,484.4,12.7z
		 M470.1,189.8V68.5h28.6v121.3H470.1z"/>
	<path fill="#4361ee" d="M526.8,189.8V68.5h28.6v13.1c9-9.5,22.1-15.5,36.4-15.5c28.1,0,47.5,19.9,47.5,50.7v73h-28.6v-66.9
		c0-20.4-10.7-29.8-26-29.8c-16.5,0-29.4,12.1-29.4,31.3v65.5H526.8z"/>
</g>
<g>
</g>
<g>
</g>
<g>
</g>
<g>
</g>
<g>
</g>
<g>
</g>
<g>
</g>
<g>
</g>
<g>
</g>
<g>
</g>
<g>
</g>
</svg>
