<svg width="1756" height="333" viewBox="0 0 1756 333" fill="none" xmlns="http://www.w3.org/2000/svg">
<path d="M147.895 1.00492C239.243 -9.02041 321.347 57.1028 331.049 148.508C340.751 239.913 274.353 321.805 182.934 331.187C91.9731 340.522 10.5908 274.511 0.941794 183.56C-8.71598 92.6092 56.9957 10.9801 147.895 1.00492Z" fill="#302F30"/>
<path d="M161.407 69.5949C192.3 66.8889 206.747 83.8726 217.707 109.975C225.481 115.813 235.183 118.863 243.159 125.359C273.497 150.044 266.894 191.328 235.887 211.958C231.67 214.764 219.767 217.906 217.734 220.433C217.883 226.822 209.036 239.997 205.162 245.019C196.49 256.279 183.513 260.268 169.815 261.793C140.278 264.088 121.649 246.242 113.312 219.491C99.8948 214.764 92.7725 211.975 82.8946 200.719C72.6822 189.085 68.1219 175.748 69.328 160.223C70.7366 143.77 80.2447 129.097 94.6741 121.082C101.171 117.4 108.795 114.436 114.342 109.616L114.641 109.354C124.528 83.8646 133.2 74.5825 161.407 69.5949Z" fill="white"/>
<path d="M112.303 135.406C121.38 140.165 118.069 163.843 155.574 175.209C149.279 186.821 145.097 191.354 133.362 196.867C131.777 197.422 130.166 197.867 128.528 198.2C119.997 199.87 109.591 196.338 101.985 191.747C87.3793 182.921 87.1415 158.6 95.4347 145.372C99.5197 138.853 104.864 136.74 112.303 135.406Z" fill="#302F30"/>
<path d="M159.886 88.7605C180.997 88.1855 186.702 95.8782 198.666 111.346C181.261 117.745 170.917 129.249 159.666 143.162C157.473 148.473 155.801 150.878 152.614 155.706C145.483 148.899 138.263 142.139 134.76 132.643C131.934 124.908 132.312 116.363 135.807 108.907C140.376 99.0579 149.911 92.3664 159.886 88.7605Z" fill="#302F30"/>
<path d="M201.728 133.851C250.413 128.373 254.383 187.356 219.793 196.268C214.661 189.474 212.724 179.75 206.297 172.897C200.909 166.443 182.738 161.983 179.718 154.729C175.554 144.723 195.865 135.824 201.728 133.851Z" fill="#302F30"/>
<path d="M176.65 176.914C190.12 184.933 200.157 195.678 198.537 212.414C197.762 221.18 193.501 229.269 186.713 234.867C177.381 242.548 168.947 242.844 157.599 241.771C145.247 237.995 140.678 231.08 134.084 220.73C159.809 203.698 162.406 208.3 176.65 176.914Z" fill="#302F30"/>
<path d="M1270.63 65.4062L1308.2 65.5181C1309.35 132.726 1308.26 203.412 1308.21 270.907C1295.22 271.585 1279.02 271.204 1265.81 271.18C1261.09 266.249 1254.42 256.204 1249.91 250.218L1211.93 199.231C1193.5 174.39 1168.45 144.713 1152.67 119.421C1150.5 132.2 1151.28 160.037 1151.29 174.449L1151.26 270.953C1138.8 271.062 1126.2 271.293 1113.76 270.834C1113.51 262.338 1113.43 253.231 1113.67 244.741C1115.38 185.201 1112.57 125.018 1113.77 65.5841C1127.43 65.5084 1141.42 65.2557 1155.04 65.8659C1164.29 75.2264 1170.07 86.1913 1178.26 96.6041C1209.66 137.103 1240.27 178.2 1270.1 219.87C1271.07 169.294 1268.7 115.558 1270.63 65.4062Z" fill="#302F30"/>
<path d="M1404.01 114.906C1448.17 109.066 1488.74 140.06 1494.72 184.215C1500.7 228.37 1469.85 269.045 1425.72 275.173C1381.4 281.328 1340.5 250.292 1334.49 205.934C1328.48 161.576 1359.64 120.773 1404.01 114.906ZM1438.26 155.275C1430.76 150.338 1420.38 148.148 1411.58 149.176C1398.2 151.628 1386.13 155.412 1378.45 167.144C1366.6 185.241 1369.21 221.064 1388.86 233.344C1400.17 240.415 1408.07 241.44 1420.74 240.625C1452.04 234.795 1461.39 210.21 1455.56 180.804C1453.45 170.317 1447.22 161.118 1438.26 155.275Z" fill="#302F30"/>
<path d="M1607.2 119.506C1620.54 118.477 1630.83 118.546 1644.18 119.369C1652.65 134.143 1654.65 145.276 1659.9 161.317C1665.68 178.93 1673.06 197.935 1679.85 215.336C1680.84 217.855 1682.81 220.77 1685.51 221.708L1686.82 221.048C1688.15 213.06 1689.82 207.743 1691.29 200.335C1696.68 173.14 1710.79 145.668 1716.16 119.031C1728.63 118.703 1742.73 118.295 1755.07 119.73C1749.6 127.75 1746.37 145.845 1742.73 156.655C1729.41 195.387 1717.59 232.032 1705.84 271.236C1693.53 271.266 1676.99 271.76 1665.03 270.792C1659.13 258.746 1654.87 242.745 1650.11 230.024C1641.76 207.744 1633.29 189.798 1629.1 166.153C1625.26 172.291 1621 183.098 1618.1 189.915C1606.47 217.253 1599.86 244.07 1587.71 271.297L1547.32 271.251C1534.09 222.998 1513.97 167.817 1498.82 119.102C1511.69 118.553 1525.51 118.725 1538.36 119.017C1547.6 153.779 1558.96 193.631 1572.06 227.045C1574.72 206.969 1586.16 181.892 1593.03 162.862C1598.27 148.383 1602.62 134.192 1607.2 119.506Z" fill="#302F30"/>
<path d="M896.519 116.153C914.059 115.983 933.654 120.446 946.639 133.055C963.339 149.27 961.189 175.892 961.151 197.518L961.208 233.28L979.585 233.326L979.449 271.047C968.068 271.235 951.343 271.576 940.414 270.374C939.966 263.858 942.041 252.728 937.355 248.659C927.442 246.122 913.276 266.316 903.077 269.636C876.856 278.17 855.861 275.805 834.447 259.149C833.255 258.155 832.112 257.106 831.019 256.004C809.519 234.466 818.176 194.672 847.871 185.937C873.295 178.458 899.685 180.026 925.857 180.264L925.52 175.565C924.296 159.653 921.348 157.513 909.449 147.312C889.364 146.013 877.264 143.704 862.231 159.001C861.758 160.929 861.668 161.66 860.506 163.354C852.928 165.803 832.161 164.83 823.152 164.714C825.216 155.277 827.053 146.716 833.63 139.225C846.615 124.434 863.636 118.519 882.461 116.708C887.139 116.351 891.828 116.166 896.519 116.153ZM925.555 209.013C921.082 204.065 883.348 205.878 875.216 206.498C867.733 208.099 863.816 210.282 857.435 214.501C853.849 229.835 854.414 240.448 872.655 244.211C882.598 246.284 892.941 245.2 902.238 241.107C910.619 236.682 930.067 218.62 925.555 209.013Z" fill="#302F30"/>
<path d="M526.975 63.8607C547.153 61.0376 571.818 64.7994 589.902 74.0084C614.504 86.5363 623.921 107.673 632.185 132.628C618.361 132.749 603.498 132.456 589.699 132.115C585.031 107.093 570.058 100.457 545.601 97.2969C456.756 85.816 446.529 230.508 530.316 240.553C546.069 242.442 568.631 236.222 580.802 226.272C586.713 220.06 587.491 213.104 590.493 204.558C603.325 204.175 617.459 204.484 630.387 204.505C624.376 246.622 591.979 270.102 551.548 274.193C492.072 280.212 441.177 244.493 436.699 182.458C432.121 119.049 459.439 70.3382 526.975 63.8607Z" fill="#302F30"/>
<path d="M646.863 57.467C659.759 57.3067 671.926 57.1808 684.844 57.6352L684.863 140.479C704.527 123.974 711.966 114.588 740.672 116.119C755.549 116.914 772.365 122.801 782.446 134.227C801.56 155.89 797.727 188.311 798.209 215.041C798.29 233.882 798.471 252.711 797.745 271.188C785.271 271.231 772.796 271.152 760.322 270.951C759.701 251.709 760.231 229.602 760.232 210.136C760.455 181.813 763.324 150.098 724.829 149.807C680.51 149.471 684.631 188.387 684.711 220.596L684.884 271.427C672.376 271.064 659.343 271.254 646.793 271.269L646.863 57.467Z" fill="#302F30"/>
<path d="M1015.76 72.9883C1027.26 73.0931 1039.41 72.9987 1050.85 73.3535C1050.87 88.3011 1050.68 103.785 1050.92 118.688L1087.67 118.834L1086.9 148.85C1075.25 148.855 1062.63 148.632 1051.07 149.097C1050.61 179.862 1051.2 210.741 1050.66 241.4L1091.46 241.42L1091.42 271.425C1082.29 271.254 1065.97 270.678 1057.24 271.249C1009.94 274.347 1014.38 248.06 1013.87 211.149C1013.61 192.075 1014.48 168.786 1013.53 149.215C1005.19 148.898 996.845 148.751 988.502 148.774C987.848 138.289 987.776 129.35 987.828 118.823L1004.52 118.693C1007.11 118.874 1013.24 118.579 1016.1 118.52L1015.75 72.9902C1015.76 72.9898 1015.76 72.9887 1015.76 72.9883Z" fill="#302F30"/>
</svg>
