<svg width="128" height="128" viewBox="0 0 128 128" fill="none" xmlns="http://www.w3.org/2000/svg">
<g clip-path="url(#clip0_5780_26205)">
<path fill-rule="evenodd" clip-rule="evenodd" d="M64 128C99.3462 128 128 99.3462 128 64C128 28.6538 99.3462 0 64 0C28.6538 0 0 28.6538 0 64C0 99.3462 28.6538 128 64 128ZM43.7126 84.2853C34.0429 82.5974 26.6665 74.1468 26.6665 64.0002C26.6665 53.8537 34.0429 45.403 43.7124 43.7151C45.3999 34.0438 53.8497 26.6667 63.9953 26.6667C74.1405 26.6667 82.5906 34.0435 84.2783 43.7149C93.9534 45.4021 101.333 53.8532 101.333 64.0002C101.333 74.1473 93.9534 82.5985 84.2783 84.2856C82.5906 93.9564 74.1408 101.333 63.9956 101.333C53.8504 101.333 45.4003 93.9562 43.7126 84.2853ZM51.5811 84.1422C53.0779 89.5929 58.0766 93.6092 63.9956 93.6092C71.0937 93.6092 76.8678 87.8341 76.8667 80.7358C76.8667 80.3243 76.843 79.9186 76.8052 79.5171C76.7973 79.4351 76.786 79.3541 76.7748 79.2731C76.7684 79.2268 76.762 79.1804 76.7561 79.1338C76.7223 78.8617 76.6835 78.5914 76.6325 78.3248C76.605 78.1799 76.5727 78.037 76.5404 77.894C76.4841 77.6453 76.4211 77.3996 76.3505 77.1567L76.3485 77.15C76.3086 77.0126 76.2686 76.8749 76.2243 76.7394C76.1414 76.4866 76.0483 76.2386 75.9505 75.993C75.9341 75.9518 75.9182 75.9104 75.9024 75.869C75.8734 75.7932 75.8444 75.7175 75.8124 75.6435C75.6631 75.299 75.5019 74.9607 75.3246 74.6324C75.3214 74.6269 75.3187 74.6211 75.316 74.6154C75.314 74.611 75.3119 74.6066 75.3096 74.6023C75.1262 74.2653 74.9248 73.9391 74.713 73.621C74.6687 73.5545 74.6217 73.4899 74.5747 73.4254C74.5488 73.3898 74.5229 73.3543 74.4975 73.3184C74.3469 73.1058 74.1929 72.8962 74.0298 72.6933C73.9402 72.5816 73.8471 72.4729 73.7537 72.3643C73.5945 72.1786 73.4299 71.9976 73.2603 71.8214C73.1607 71.7179 73.0607 71.6145 72.9578 71.5145C72.7732 71.335 72.5815 71.1635 72.3866 70.9952C72.3532 70.9664 72.3201 70.9372 72.287 70.9079C72.2255 70.8536 72.164 70.7993 72.1004 70.7476C71.8201 70.5195 71.5309 70.3018 71.2318 70.0977C71.2223 70.0911 71.2131 70.0839 71.204 70.0769C71.1968 70.0715 71.1897 70.0661 71.1822 70.0611C70.8659 69.8473 70.5374 69.6503 70.2022 69.4649C70.136 69.4283 70.0682 69.3945 70.0004 69.3608C69.9586 69.34 69.9168 69.3191 69.8753 69.2976C69.6404 69.1762 69.4024 69.0592 69.1593 68.9522C69.0356 68.8977 68.9101 68.8473 68.7841 68.7967L68.7629 68.7881C68.5296 68.6948 68.2934 68.6079 68.0537 68.528C67.9166 68.4822 67.7795 68.4369 67.6404 68.3958C67.5952 68.3824 67.5491 68.3712 67.5029 68.3599C67.4677 68.3513 67.4323 68.3427 67.3974 68.3331C67.392 68.3586 67.3852 68.3835 67.3784 68.4085C67.3724 68.4306 67.3663 68.4529 67.3613 68.4755C67.2769 68.8548 67.1816 69.2297 67.0766 69.6006C67.0691 69.6273 67.0616 69.654 67.0542 69.6807C67.034 69.7528 67.0139 69.825 66.9924 69.8966C66.8655 70.3206 66.7274 70.7403 66.5744 71.1528C66.5627 71.184 66.5502 71.2149 66.5377 71.2458C66.5268 71.2728 66.5158 71.2998 66.5054 71.3271C66.3667 71.69 66.2172 72.0471 66.0589 72.4002C66.0156 72.4962 65.9731 72.5926 65.9284 72.6879C65.7433 73.0844 65.549 73.4756 65.3396 73.858C65.3277 73.8798 65.3151 73.9011 65.3025 73.9224C65.2917 73.9407 65.281 73.9589 65.2706 73.9775C65.0775 74.3247 64.8734 74.6645 64.6609 74.9991C64.6041 75.0887 64.5474 75.1782 64.4894 75.2669C64.2497 75.632 64.0023 75.9915 63.7407 76.3402C63.7344 76.3485 63.7279 76.3566 63.7215 76.3646C63.715 76.3727 63.7085 76.3808 63.7022 76.3892C63.451 76.7218 63.1875 77.0442 62.9172 77.3605C62.8482 77.4414 62.7788 77.5215 62.7086 77.6012C62.1319 78.2551 61.5154 78.8719 60.8616 79.4485C60.8153 79.4892 60.7688 79.5297 60.7221 79.57C60.6881 79.5993 60.6541 79.6285 60.6199 79.6578C60.3046 79.9274 59.9835 80.1899 59.6523 80.4401C59.6438 80.4465 59.6356 80.4531 59.6273 80.4597C59.6182 80.467 59.6091 80.4743 59.5997 80.4814C59.252 80.7425 58.8934 80.9894 58.5287 81.2287C58.4418 81.2859 58.3539 81.3418 58.266 81.3975L58.258 81.4026C57.926 81.6132 57.5887 81.8161 57.244 82.008C57.2239 82.0191 57.2042 82.0308 57.1844 82.0424C57.1622 82.0555 57.1399 82.0686 57.1173 82.081C56.7367 82.2893 56.347 82.4829 55.9523 82.6676C55.8735 82.7046 55.7941 82.7402 55.7147 82.7757C55.6953 82.7844 55.6758 82.7931 55.6564 82.8018C55.3094 82.9573 54.9582 83.1045 54.6013 83.2409C54.5726 83.2519 54.5441 83.2634 54.5156 83.2749C54.4804 83.2891 54.4453 83.3032 54.4099 83.3165C54.0015 83.4682 53.5858 83.605 53.1657 83.731C53.1133 83.7467 53.0607 83.7617 53.008 83.7765C52.9553 83.7913 52.9025 83.8059 52.8499 83.8209C52.4904 83.9225 52.1276 84.0148 51.7602 84.097C51.7309 84.1034 51.7021 84.1112 51.6733 84.119C51.6427 84.1273 51.6122 84.1356 51.5811 84.1422ZM84.1359 76.4168C89.5906 74.9204 93.6099 69.9207 93.6099 64.0002C93.6099 56.9016 87.8317 51.1269 80.7282 51.1266C80.3168 51.1266 79.911 51.1504 79.5096 51.1883C79.4285 51.1961 79.3482 51.2072 79.2679 51.2183C79.2206 51.2249 79.1733 51.2314 79.1258 51.2373C78.854 51.2712 78.584 51.3103 78.3174 51.361C78.1725 51.3886 78.0292 51.4211 77.8861 51.4534C77.6377 51.5096 77.3923 51.5729 77.1494 51.6433C77.0095 51.6839 76.8699 51.7245 76.732 51.7697C76.4794 51.8524 76.2312 51.9455 75.9856 52.0433C75.9443 52.0598 75.9027 52.0757 75.8611 52.0917C75.7856 52.1206 75.7102 52.1496 75.6364 52.1815C75.2917 52.3306 74.9534 52.4917 74.6249 52.6694C74.6154 52.6746 74.605 52.6791 74.595 52.6843C74.258 52.8677 73.9325 53.0691 73.6142 53.281C73.5481 53.3249 73.484 53.3716 73.4198 53.4183C73.3837 53.4446 73.3475 53.4709 73.3111 53.4967C73.0987 53.6471 72.8891 53.8014 72.6863 53.9642C72.5764 54.0525 72.4697 54.1442 72.3629 54.236L72.3582 54.2401C72.1724 54.3996 71.9911 54.5641 71.8147 54.7339L71.8096 54.7388C71.7079 54.837 71.6065 54.935 71.5081 55.0363C71.3292 55.2207 71.1576 55.4121 70.9896 55.6068C70.9602 55.6409 70.9304 55.6747 70.9006 55.7085C70.8466 55.7696 70.7926 55.8307 70.741 55.8941C70.5143 56.1734 70.2975 56.4613 70.0941 56.7591C70.0817 56.7774 70.0672 56.7941 70.0548 56.8126C69.8418 57.1285 69.6449 57.4565 69.4597 57.7913C69.4214 57.8604 69.3861 57.9312 69.3509 58.002C69.3307 58.0425 69.3105 58.0831 69.2897 58.1233C69.1695 58.3563 69.0538 58.5915 68.9478 58.8322C68.894 58.9542 68.8442 59.0782 68.7943 59.2025L68.7805 59.2368C68.6886 59.4665 68.6033 59.6992 68.5244 59.9352C68.4773 60.0756 68.431 60.2162 68.389 60.3589C68.3757 60.4034 68.3646 60.4488 68.3536 60.4942C68.3452 60.5285 68.3368 60.5628 68.3275 60.5968C68.3563 60.6031 68.3845 60.6107 68.4128 60.6184C68.4395 60.6256 68.4663 60.6328 68.4935 60.6389C68.8596 60.7208 69.222 60.8129 69.5806 60.9141C69.6069 60.9216 69.6332 60.9289 69.6595 60.9362C69.7401 60.9588 69.8205 60.9812 69.9005 61.0053C70.3191 61.131 70.7335 61.2674 71.1407 61.4185C71.178 61.4324 71.2148 61.4473 71.2515 61.4621C71.2813 61.4741 71.3111 61.4862 71.341 61.4977C71.6939 61.633 72.0414 61.7781 72.3846 61.932C72.4867 61.9775 72.5885 62.0229 72.6897 62.0701C73.0821 62.2536 73.469 62.446 73.8474 62.6531C73.8739 62.6676 73.8998 62.6828 73.9257 62.698C73.9473 62.7107 73.9689 62.7233 73.9908 62.7355C74.328 62.9234 74.6587 63.1218 74.9838 63.3281C75.0796 63.3889 75.1749 63.4494 75.2695 63.5116C75.6299 63.7483 75.9849 63.9925 76.329 64.2506C76.3428 64.261 76.3563 64.2718 76.3697 64.2827C76.3819 64.2924 76.3939 64.3021 76.4062 64.3114C76.7278 64.5548 77.0399 64.8097 77.3463 65.0713C77.4326 65.1451 77.5179 65.2189 77.6031 65.2939C77.9252 65.5781 78.2412 65.8683 78.5451 66.172L78.5591 66.186C78.8619 66.4894 79.1522 66.8053 79.4359 67.1268C79.5113 67.2117 79.5852 67.2976 79.659 67.384C79.9202 67.6901 80.1751 68.0021 80.4183 68.3234C80.4277 68.3357 80.4374 68.3479 80.4472 68.36C80.4581 68.3736 80.469 68.3872 80.4795 68.4011C80.7374 68.7451 80.9813 69.0995 81.2177 69.4597C81.2805 69.555 81.3414 69.6509 81.4024 69.7474C81.6077 70.0713 81.8048 70.4001 81.9922 70.7356C82.0044 70.7574 82.0171 70.779 82.0298 70.8006C82.046 70.8283 82.0623 70.8559 82.0776 70.884C82.284 71.2614 82.4759 71.6472 82.6586 72.0382C82.6987 72.1239 82.7372 72.21 82.7758 72.2962L82.7994 72.3488C82.9515 72.6889 83.0951 73.0331 83.2292 73.3823C83.2559 73.4526 83.2857 73.5215 83.3119 73.5921C83.4622 73.9974 83.5979 74.4096 83.7228 74.826C83.7558 74.9356 83.7858 75.0461 83.8168 75.1567C83.9161 75.5098 84.0067 75.8665 84.0877 76.2269C84.0946 76.2574 84.1027 76.2876 84.1109 76.3177C84.1198 76.3505 84.1287 76.3834 84.1359 76.4168ZM76.4101 43.8583C74.9134 38.4071 69.9147 34.3908 63.9956 34.3908C56.8975 34.3908 51.1236 40.1664 51.1241 47.2647C51.1241 47.6761 51.1477 48.0819 51.1855 48.4833C51.1933 48.5646 51.2045 48.6448 51.2156 48.725C51.2221 48.7722 51.2287 48.8193 51.2345 48.8667C51.2684 49.1387 51.3072 49.409 51.3582 49.6756C51.3857 49.8205 51.418 49.9634 51.4504 50.1066C51.5066 50.3552 51.5696 50.6009 51.6403 50.8438C51.6809 50.9837 51.7214 51.1233 51.7667 51.2612C51.8493 51.5134 51.9422 51.7608 52.0397 52.006C52.0559 52.0467 52.0716 52.0876 52.0873 52.1286C52.1168 52.2054 52.1463 52.2822 52.1788 52.3574C52.3277 52.7017 52.4888 53.0397 52.6661 53.3678C52.6717 53.3778 52.6758 53.3882 52.6812 53.3982C52.8646 53.7352 53.0659 54.0613 53.2777 54.3794C53.322 54.4461 53.3691 54.5107 53.4161 54.5753C53.442 54.6107 53.4678 54.6462 53.4932 54.682C53.6438 54.8947 53.7979 55.1042 53.9609 55.3071C54.0505 55.4189 54.1436 55.5277 54.237 55.6361C54.3962 55.8219 54.5608 56.0028 54.7304 56.1791C54.83 56.2826 54.93 56.3859 55.0328 56.486C55.2175 56.6654 55.4092 56.837 55.6041 57.0052C55.6377 57.0342 55.671 57.0636 55.7042 57.0929C55.7655 57.1471 55.8268 57.2012 55.8903 57.2529C56.1706 57.4809 56.4598 57.6987 56.7589 57.9028C56.7667 57.9081 56.7741 57.9139 56.7815 57.9196C56.7904 57.9264 56.7992 57.9332 56.8085 57.9394C57.1248 58.1532 57.4533 58.3501 57.7885 58.5355C57.8558 58.5727 57.9246 58.6071 57.9935 58.6414C58.0343 58.6618 58.0751 58.6822 58.1156 58.7031C58.3505 58.8245 58.5883 58.9413 58.8312 59.0483C58.959 59.1044 59.0892 59.1566 59.2193 59.2086L59.2287 59.2124C59.4616 59.3059 59.6977 59.3926 59.9372 59.4725C60.0746 59.5183 60.2118 59.5635 60.3509 59.6046C60.3958 59.618 60.4416 59.6292 60.4874 59.6404C60.523 59.649 60.5585 59.6577 60.5937 59.6674C60.5991 59.6422 60.6059 59.6174 60.6126 59.5927C60.6187 59.5702 60.6248 59.5478 60.6299 59.5249C60.7143 59.1456 60.8096 58.7708 60.9146 58.3999C60.9425 58.3011 60.9694 58.202 60.9988 58.1039C61.1257 57.6798 61.2638 57.2601 61.4168 56.8476C61.4287 56.816 61.4413 56.7848 61.454 56.7535C61.4647 56.7269 61.4755 56.7003 61.4858 56.6734C61.6245 56.3105 61.774 55.9533 61.9323 55.6004C61.9433 55.5759 61.9543 55.5514 61.9653 55.5269C61.9974 55.4553 62.0295 55.3837 62.0628 55.3126C62.2479 54.9161 62.4423 54.5248 62.6516 54.1424C62.6634 54.1205 62.6761 54.0991 62.6888 54.0777C62.6996 54.0596 62.7103 54.0414 62.7206 54.023C62.9137 53.6757 63.1178 53.3359 63.3303 53.0015C63.3871 52.9118 63.4438 52.8222 63.5018 52.7336C63.7415 52.3684 63.9889 52.009 64.2504 51.6602C64.258 51.6502 64.2659 51.6406 64.2736 51.6309C64.2788 51.6244 64.284 51.6179 64.289 51.6112C64.5401 51.2786 64.8038 50.9564 65.0741 50.6399C65.143 50.5591 65.2124 50.4789 65.2826 50.3992C65.8593 49.7454 66.4758 49.1285 67.1296 48.5521C67.2095 48.4817 67.2902 48.4122 67.3713 48.3427C67.6867 48.0731 68.0076 47.8105 68.3389 47.5603C68.3567 47.547 68.3736 47.5325 68.3915 47.519C68.7392 47.258 69.0978 47.011 69.4625 46.7719C69.5454 46.7172 69.6293 46.6639 69.7131 46.6106L69.7332 46.5978C70.0652 46.3872 70.4025 46.1844 70.7473 45.9925C70.7671 45.9815 70.7866 45.97 70.8061 45.9585C70.8285 45.9453 70.851 45.9321 70.8739 45.9196C71.2545 45.7112 71.6442 45.5175 72.0389 45.3328C72.1173 45.2961 72.1962 45.2608 72.2751 45.2255C72.295 45.2165 72.315 45.2076 72.3349 45.1987C72.6818 45.0431 73.033 44.896 73.3899 44.7596C73.4184 44.7486 73.4466 44.7372 73.4749 44.7258C73.5103 44.7116 73.5457 44.6973 73.5814 44.6839C73.9897 44.5324 74.4054 44.3954 74.8255 44.2694C74.8974 44.248 74.9698 44.2277 75.0422 44.2075C75.0753 44.1982 75.1083 44.189 75.1413 44.1796C75.5007 44.0781 75.8636 43.9857 76.231 43.9036C76.26 43.8971 76.2884 43.8894 76.3169 43.8817C76.3478 43.8734 76.3786 43.865 76.4101 43.8583ZM43.877 51.6663C43.8696 51.639 43.8622 51.6117 43.8563 51.5839C38.4056 53.0813 34.3898 58.0806 34.3898 64.0005C34.3898 71.0988 40.1638 76.8739 47.2618 76.8739C47.6732 76.8739 48.0789 76.85 48.4803 76.8121C48.5624 76.8042 48.6435 76.793 48.7246 76.7818C48.7711 76.7753 48.8175 76.7689 48.8642 76.7631C49.136 76.7293 49.4059 76.6902 49.6726 76.6394C49.8174 76.6118 49.9607 76.5794 50.1039 76.5471C50.3525 76.4908 50.5979 76.4276 50.8409 76.3571C50.9807 76.3165 51.1204 76.2759 51.2582 76.2307C51.5111 76.1481 51.7595 76.0547 52.0054 75.9569C52.0477 75.94 52.0902 75.9237 52.1327 75.9074C52.2069 75.8789 52.281 75.8505 52.3538 75.819C52.6988 75.6699 53.037 75.5085 53.3656 75.3308C53.3705 75.3281 53.3756 75.3257 53.3808 75.3233C53.3857 75.321 53.3906 75.3187 53.3954 75.3161C53.7324 75.1328 54.058 74.9314 54.3763 74.7196C54.4428 74.6753 54.5073 74.6283 54.5719 74.5813C54.6076 74.5553 54.6434 74.5292 54.6794 74.5037C54.8918 74.3534 55.1013 74.199 55.3042 74.0362C55.4139 73.9481 55.5204 73.8565 55.6269 73.765L55.6322 73.7605C55.8181 73.6009 55.9993 73.4363 56.1758 73.2666C56.279 73.1668 56.3824 73.0672 56.4824 72.9642C56.6613 72.7797 56.8329 72.5883 57.0009 72.3937C57.0302 72.3597 57.0598 72.3261 57.0895 72.2924C57.1436 72.2312 57.1977 72.1699 57.2495 72.1064C57.4762 71.8272 57.693 71.5391 57.8964 71.2415C57.9088 71.223 57.9233 71.2063 57.9357 71.188C58.1487 70.872 58.3456 70.5439 58.5307 70.2092C58.5688 70.1404 58.604 70.0698 58.6391 69.9993C58.6594 69.9586 58.6796 69.9179 58.7005 69.8776C58.8207 69.6444 58.9365 69.4089 59.0429 69.1677C59.1012 69.0348 59.1553 68.8996 59.2092 68.7645C59.301 68.5342 59.3867 68.3012 59.4656 68.0648C59.5126 67.9244 59.5589 67.7838 59.601 67.6413C59.6143 67.5968 59.6253 67.5514 59.6364 67.506C59.6448 67.4717 59.6532 67.4374 59.6625 67.4034C59.6484 67.4004 59.6344 67.397 59.6205 67.3935C59.5793 67.383 59.5386 67.3709 59.4969 67.3616C59.1296 67.2792 58.7667 67.1871 58.4073 67.0855C58.3774 67.0771 58.3475 67.0687 58.3177 67.0604C58.2421 67.0392 58.1666 67.0181 58.0915 66.9956C57.6716 66.8698 57.2556 66.7328 56.8473 66.5813C56.8127 66.5682 56.7784 66.5544 56.7442 66.5406C56.7149 66.5288 56.6855 66.5169 56.6559 66.5056C56.2993 66.3691 55.9478 66.2221 55.6009 66.0665C55.5761 66.0553 55.5512 66.0442 55.5264 66.0331C55.4524 65.9998 55.3783 65.9667 55.3049 65.9324C54.9102 65.7477 54.5204 65.554 54.1399 65.3456C54.1198 65.3346 54.1 65.323 54.0802 65.3114C54.058 65.2983 54.0358 65.2852 54.0132 65.2727C53.6684 65.0808 53.3313 64.878 52.9992 64.6674C52.9833 64.6573 52.9675 64.6471 52.9516 64.637C52.8769 64.5895 52.8023 64.542 52.7284 64.4933C52.3638 64.2539 52.0051 64.0072 51.6574 63.746C51.648 63.7391 51.639 63.7318 51.63 63.7245C51.6217 63.7178 51.6135 63.7112 51.605 63.7047C51.2737 63.4543 50.9526 63.192 50.6372 62.9224C50.5564 62.8532 50.4757 62.7835 50.3956 62.7131C49.7417 62.1366 49.1252 61.5198 48.5485 60.8659C48.4783 60.7863 48.4089 60.7059 48.34 60.6251C48.0697 60.3088 47.8061 59.9862 47.555 59.654C47.5496 59.6468 47.544 59.6398 47.5385 59.6329C47.5311 59.6236 47.5237 59.6144 47.5164 59.6048C47.2546 59.2562 47.0074 58.8967 46.7678 58.5315C46.7098 58.443 46.653 58.3533 46.5962 58.2637C46.3837 57.9291 46.1794 57.5895 45.9865 57.2422C45.9641 57.2021 45.9395 57.163 45.9176 57.1227C45.7083 56.7404 45.5139 56.3491 45.3287 55.9526C45.2925 55.8756 45.2578 55.798 45.2231 55.7204C45.2148 55.7019 45.2065 55.6833 45.1982 55.6648C45.0397 55.3119 44.8902 54.9547 44.7518 54.5917C44.742 54.5664 44.7319 54.5413 44.7217 54.5161C44.7085 54.4834 44.6952 54.4507 44.6829 54.4175C44.5298 54.0051 44.3916 53.5856 44.2647 53.1612C44.2438 53.0908 44.2239 53.0198 44.204 52.9487C44.1962 52.9209 44.1884 52.893 44.1805 52.8652C44.0755 52.4944 43.9802 52.1195 43.8958 51.7401C43.8903 51.7153 43.8837 51.6908 43.877 51.6663Z" fill="black" style="fill:black;fill-opacity:1;"/>
</g>
<defs>
<clipPath id="clip0_5780_26205">
<rect width="128" height="128" fill="white" style="fill:white;fill-opacity:1;"/>
</clipPath>
</defs>
</svg>
