<svg width="1181" height="332" viewBox="0 0 1181 332" fill="none" xmlns="http://www.w3.org/2000/svg">
<path d="M31.4947 187.137L35.1569 8.42298L44.3123 9.15543L40.6501 187.137C40.406 199.833 42.6033 209.232 47.242 215.336C52.1249 221.439 60.1817 224.491 71.4124 224.491C72.1448 224.491 72.511 225.224 72.511 226.689C72.511 228.153 72.1448 228.886 71.4124 228.886C66.0412 228.886 60.5479 228.764 54.9326 228.52C49.3173 228.276 42.9695 228.153 35.8893 228.153C29.2974 228.153 23.0717 228.276 17.2122 228.52C11.3527 228.764 5.85948 228.886 0.732435 228.886C0.244145 228.886 0 228.153 0 226.689C0 225.224 0.244145 224.491 0.732435 224.491C10.9865 224.491 18.555 221.439 23.4379 215.336C28.565 209.232 31.2506 199.833 31.4947 187.137ZM287.847 224.491C288.335 224.491 288.579 225.224 288.579 226.689C288.579 228.153 288.335 228.886 287.847 228.886C281.743 228.886 274.907 228.764 267.339 228.52C259.77 228.276 251.713 228.153 243.168 228.153C235.112 228.153 227.543 228.276 220.463 228.52C213.383 228.764 207.035 228.886 201.42 228.886C200.687 228.886 200.321 228.153 200.321 226.689C200.321 225.224 200.687 224.491 201.42 224.491C213.383 224.491 221.073 222.904 224.491 219.73C227.909 216.557 229.252 209.72 228.52 199.222L221.195 26.7339L235.478 6.22568L140.627 226.322C140.383 227.299 139.407 227.787 137.698 227.787C136.233 227.787 135.256 227.299 134.768 226.322L39.1853 30.396C30.6402 13.0617 18.6771 4.3946 3.29596 4.3946C2.80767 4.3946 2.56352 3.66216 2.56352 2.1973C2.56352 0.732433 2.80767 0 3.29596 0C7.69057 0 12.2072 0.122071 16.846 0.366213C21.7289 0.610354 25.8794 0.732425 29.2974 0.732425C33.9361 0.732425 38.0866 0.610354 41.7488 0.366213C45.6551 0.122071 48.5848 0 50.538 0C53.956 0 56.6416 1.22072 58.5948 3.66217C60.5479 5.85948 63.4777 10.9865 67.384 19.0433L150.515 187.87L136.965 211.307L225.224 9.15543C226.444 6.22568 227.909 4.02838 229.618 2.56351C231.571 0.854504 233.769 0 236.21 0C237.919 0 239.994 0.122071 242.436 0.366213C245.122 0.610354 248.173 0.732425 251.591 0.732425C258.427 0.732425 264.165 0.610354 268.804 0.366213C273.442 0.122071 278.203 0 283.086 0C283.574 0 283.818 0.732433 283.818 2.1973C283.818 3.66216 283.574 4.3946 283.086 4.3946C271.367 4.3946 262.822 6.34776 257.451 10.2541C252.08 13.9163 249.516 20.7523 249.76 30.7623L257.451 199.222C257.939 206.302 258.916 211.674 260.381 215.336C261.845 218.998 264.653 221.439 268.804 222.66C272.954 223.881 279.302 224.491 287.847 224.491Z" fill="black"/>
<path d="M363.213 233.647C348.32 233.647 335.381 230.107 324.394 223.026C313.652 215.946 305.351 206.547 299.491 194.828C293.632 182.865 290.702 170.047 290.702 156.375C290.702 143.679 293.022 132.693 297.66 123.415C302.543 114.138 308.891 106.569 316.704 100.71C324.516 94.6061 333.061 90.0895 342.339 87.1597C351.616 84.23 360.772 82.7651 369.805 82.7651C384.942 82.7651 397.882 86.4273 408.624 93.7516C419.367 101.076 427.545 110.476 433.161 121.95C439.02 133.425 441.95 145.51 441.95 158.206C441.95 173.587 438.288 187.015 430.963 198.49C423.639 209.72 413.995 218.388 402.032 224.491C390.313 230.595 377.374 233.647 363.213 233.647ZM373.834 226.689C385.797 226.689 395.074 222.05 401.666 212.772C408.502 203.251 411.92 188.846 411.92 169.559C411.92 153.201 409.479 139.163 404.596 127.444C399.713 115.481 393.121 106.325 384.82 99.9773C376.763 93.3854 367.608 90.0895 357.354 90.0895C345.391 90.0895 336.113 94.7282 329.521 104.006C323.173 113.039 320 126.467 320 144.29C320 159.671 322.319 173.709 326.958 186.405C331.597 198.856 337.944 208.744 346.001 216.068C354.058 223.148 363.335 226.689 373.834 226.689Z" fill="black"/>
<path d="M521.574 233.647C506.681 233.647 493.741 230.107 482.755 223.026C472.012 215.946 463.711 206.547 457.852 194.828C451.992 182.865 449.063 170.047 449.063 156.375C449.063 143.679 451.382 132.693 456.021 123.415C460.904 114.138 467.251 106.569 475.064 100.71C482.877 94.6061 491.422 90.0895 500.699 87.1597C509.977 84.23 519.132 82.7651 528.166 82.7651C543.303 82.7651 556.242 86.4273 566.985 93.7516C577.727 101.076 585.906 110.476 591.521 121.95C597.381 133.425 600.31 145.51 600.31 158.206C600.31 173.587 596.648 187.015 589.324 198.49C582 209.72 572.356 218.388 560.393 224.491C548.674 230.595 535.734 233.647 521.574 233.647ZM532.194 226.689C544.157 226.689 553.435 222.05 560.026 212.772C566.863 203.251 570.281 188.846 570.281 169.559C570.281 153.201 567.839 139.163 562.956 127.444C558.073 115.481 551.481 106.325 543.18 99.9773C535.124 93.3854 525.968 90.0895 515.714 90.0895C503.751 90.0895 494.474 94.7282 487.882 104.006C481.534 113.039 478.36 126.467 478.36 144.29C478.36 159.671 480.679 173.709 485.318 186.405C489.957 198.856 496.305 208.744 504.361 216.068C512.418 223.148 521.696 226.689 532.194 226.689Z" fill="black"/>
<path d="M708.865 228.886C708.133 228.886 707.767 228.153 707.767 226.689C707.767 225.224 708.133 224.491 708.865 224.491C717.654 224.491 723.392 222.904 726.077 219.73C729.007 216.312 730.472 209.476 730.472 199.222V141.726C730.472 127.81 727.909 117.556 722.781 110.964C717.654 104.128 709.476 100.71 698.245 100.71C689.7 100.71 681.033 103.273 672.243 108.4C663.698 113.283 656.374 120.119 650.27 128.909L648.806 124.514C658.816 110.842 669.07 100.466 679.568 93.3854C690.31 86.3052 701.541 82.7651 713.26 82.7651C726.688 82.7651 737.064 86.6714 744.388 94.4841C751.957 102.297 755.741 113.405 755.741 127.81V199.222C755.741 209.476 757.084 216.312 759.769 219.73C762.699 222.904 768.681 224.491 777.714 224.491C778.447 224.491 778.813 225.224 778.813 226.689C778.813 228.153 778.447 228.886 777.714 228.886C773.075 228.886 767.826 228.764 761.967 228.52C756.107 228.276 749.882 228.153 743.29 228.153C736.698 228.153 730.35 228.276 724.246 228.52C718.387 228.764 713.26 228.886 708.865 228.886ZM610.353 228.886C609.62 228.886 609.254 228.153 609.254 226.689C609.254 225.224 609.62 224.491 610.353 224.491C619.142 224.491 624.879 222.904 627.565 219.73C630.495 216.312 631.96 209.476 631.96 199.222V127.81C631.96 119.997 630.983 114.26 629.03 110.598C627.321 106.935 624.269 105.104 619.874 105.104C617.433 105.104 614.625 105.593 611.451 106.569C608.278 107.302 604.615 108.522 600.465 110.231C599.488 110.72 598.756 110.353 598.268 109.133C597.779 107.668 597.901 106.691 598.634 106.203L643.679 84.5962C644.655 84.3521 645.388 84.23 645.876 84.23C648.073 84.23 650.515 86.9156 653.2 92.2868C655.886 97.658 657.229 105.349 657.229 115.358V199.222C657.229 209.476 658.571 216.312 661.257 219.73C664.187 222.904 670.168 224.491 679.202 224.491C679.934 224.491 680.3 225.224 680.3 226.689C680.3 228.153 679.934 228.886 679.202 228.886C674.563 228.886 669.314 228.764 663.454 228.52C657.595 228.276 651.369 228.153 644.777 228.153C638.185 228.153 631.838 228.276 625.734 228.52C619.874 228.764 614.747 228.886 610.353 228.886Z" fill="black"/>
<path d="M882.281 231.083C881.304 231.571 880.205 231.816 878.985 231.816C875.323 231.816 871.782 229.13 868.364 223.759C865.191 218.143 863.604 210.209 863.604 199.955V132.937C863.604 117.8 861.65 107.058 857.744 100.71C854.082 94.1179 848.955 90.8219 842.363 90.8219C836.259 90.8219 831.376 92.5309 827.714 95.9489C824.052 99.1228 821.366 102.907 819.657 107.302C818.193 111.452 817.094 115.358 816.362 119.021C815.873 123.659 814.408 127.566 811.967 130.74C809.77 133.913 805.985 135.5 800.614 135.5C795.731 135.5 792.191 134.28 789.994 131.838C787.797 129.397 786.698 126.711 786.698 123.781C786.698 118.654 789.017 113.772 793.656 109.133C798.539 104.494 804.643 100.221 811.967 96.3152C819.291 92.4088 826.86 89.357 834.672 87.1597C842.729 84.9624 849.931 83.8638 856.279 83.8638C866.289 83.8638 874.102 87.1597 879.717 93.7516C885.577 100.099 888.506 109.499 888.506 121.95V189.334C888.506 197.391 889.605 203.373 891.802 207.279C894 211.185 897.54 213.139 902.423 213.139C906.573 213.139 911.944 211.796 918.536 209.11C919.513 208.622 920.245 209.11 920.733 210.575C921.466 211.796 921.222 212.65 920.001 213.139L882.281 231.083ZM814.897 231.449C805.131 231.449 797.684 229.008 792.557 224.125C787.674 219.242 785.233 213.139 785.233 205.814C785.233 199.955 786.82 195.072 789.994 191.165C793.168 187.015 797.684 183.353 803.544 180.179C809.647 177.005 816.972 173.831 825.517 170.657L867.266 155.276L868.364 160.037L835.039 173.587C831.376 175.052 827.958 176.761 824.784 178.714C821.855 180.667 819.413 183.109 817.46 186.038C815.507 188.724 814.53 192.02 814.53 195.926C814.53 201.786 816.484 206.669 820.39 210.575C824.296 214.237 829.057 216.068 834.672 216.068C836.87 216.068 839.189 215.702 841.63 214.97C844.072 214.237 847.002 212.894 850.42 210.941L872.027 197.391L872.759 202.518L846.025 220.097C840.41 224.247 835.161 227.177 830.278 228.886C825.639 230.595 820.512 231.449 814.897 231.449Z" fill="black"/>
<path d="M967.947 331.793C951.101 331.793 937.673 327.887 927.663 320.074C917.897 312.506 913.014 302.862 913.014 291.143C913.014 280.645 917.287 270.268 925.832 260.014C934.377 250.004 947.439 239.872 965.017 229.618L969.046 234.013C963.186 236.943 957.815 240.239 952.932 243.901C948.293 247.807 944.509 252.324 941.579 257.451C938.894 262.578 937.551 268.926 937.551 276.494C937.551 285.772 939.504 293.706 943.41 300.298C947.561 306.89 953.176 311.895 960.256 315.313C967.581 318.731 976.004 320.44 985.525 320.44C1000.66 320.44 1013.11 316.168 1022.88 307.623C1032.65 299.322 1037.53 287.847 1037.53 273.198C1037.53 262.7 1035.09 255.131 1030.2 250.493C1025.32 246.098 1018.61 243.29 1010.06 242.07C1001.52 241.093 991.507 240.605 980.032 240.605C970.022 240.361 960.623 239.75 951.833 238.774C943.288 237.797 936.208 235.356 930.593 231.449C925.222 227.787 922.536 221.806 922.536 213.505C922.536 204.96 925.222 197.391 930.593 190.799C936.208 183.963 944.387 177.005 955.129 169.925L959.158 172.855C953.542 177.005 949.514 181.033 947.072 184.94C944.631 188.602 943.41 192.874 943.41 197.757C943.41 203.373 945.119 207.645 948.537 210.575C952.2 213.505 957.693 215.58 965.017 216.801C972.586 217.777 982.351 218.266 994.314 218.266C1000.91 218.266 1007.86 218.51 1015.19 218.998C1022.76 219.242 1029.84 220.463 1036.43 222.66C1043.27 224.857 1048.76 228.52 1052.91 233.647C1057.3 239.018 1059.5 246.586 1059.5 256.352C1059.5 266.606 1057.06 276.25 1052.18 285.283C1047.29 294.317 1040.58 302.251 1032.03 309.087C1023.49 316.168 1013.6 321.661 1002.37 325.567C991.385 329.718 979.91 331.793 967.947 331.793ZM977.469 180.179C965.75 180.179 955.618 177.982 947.072 173.587C938.772 168.948 932.302 162.967 927.663 155.642C923.268 148.074 921.071 140.139 921.071 131.838C921.071 122.561 923.757 114.382 929.128 107.302C934.743 100.221 942.067 94.7282 951.101 90.8219C960.378 86.9156 970.51 84.9624 981.497 84.9624C993.948 84.9624 1004.2 87.2818 1012.26 91.9206C1020.56 96.3152 1026.79 102.053 1030.94 109.133C1035.09 116.213 1037.16 123.659 1037.16 131.472C1037.16 140.505 1034.48 148.684 1029.11 156.009C1023.98 163.333 1016.9 169.192 1007.86 173.587C998.831 177.982 988.699 180.179 977.469 180.179ZM985.159 174.319C991.995 174.319 997.855 171.756 1002.74 166.629C1007.62 161.258 1010.06 152.468 1010.06 140.261C1010.06 129.519 1008.23 120.486 1004.57 113.161C1000.91 105.837 996.146 100.344 990.286 96.6814C984.427 92.7751 978.201 90.8219 971.609 90.8219C964.285 90.8219 958.425 93.3854 954.031 98.5125C949.88 103.64 947.805 111.696 947.805 122.683C947.805 133.669 949.636 143.069 953.298 150.882C957.204 158.694 961.965 164.554 967.581 168.46C973.44 172.366 979.3 174.319 985.159 174.319ZM1012.26 113.161L1012.63 101.076C1020.44 95.7048 1027.88 91.5543 1034.96 88.6246C1042.29 85.6949 1050.35 84.23 1059.14 84.23C1059.87 84.23 1060.36 85.2066 1060.6 87.1597C1061.09 88.8687 1061.33 90.8219 1061.33 93.0192C1061.33 95.9489 1060.97 99.1228 1060.23 102.541C1059.5 105.959 1058.65 107.424 1057.67 106.935C1054.74 105.471 1051.08 104.128 1046.68 102.907C1042.29 101.686 1037.53 101.076 1032.4 101.076C1029.23 101.076 1026.3 101.32 1023.61 101.808C1020.93 102.297 1018.12 103.029 1015.19 104.006L1012.26 113.161Z" fill="black"/>
<path d="M1125.25 233.28C1110.12 233.28 1097.42 229.985 1087.17 223.393C1076.91 216.557 1069.1 207.767 1063.73 197.025C1058.6 186.283 1056.04 174.808 1056.04 162.601C1056.04 147.952 1059.46 134.768 1066.29 123.049C1073.37 111.086 1082.9 101.686 1094.86 94.8503C1106.82 87.7701 1120.13 84.23 1134.78 84.23C1148.94 84.23 1159.8 87.7701 1167.37 94.8503C1175.18 101.93 1179.09 112.307 1179.09 125.979C1179.09 129.153 1178.72 131.716 1177.99 133.669C1177.5 135.378 1176.4 136.233 1174.69 136.233H1149.42C1150.4 121.584 1148.45 110.476 1143.57 102.907C1138.93 95.3386 1131.85 91.5543 1122.32 91.5543C1110.36 91.5543 1100.96 96.6814 1094.13 106.935C1087.53 117.19 1084.24 130.984 1084.24 148.318C1084.24 162.234 1086.44 174.564 1090.83 185.306C1095.22 195.804 1101.69 203.983 1110.24 209.843C1118.78 215.702 1129.16 218.632 1141.37 218.632C1149.42 218.632 1156.02 217.533 1161.14 215.336C1166.51 213.139 1172.01 210.453 1177.62 207.279C1178.11 206.791 1178.72 207.157 1179.45 208.378C1180.43 209.354 1180.68 210.209 1180.19 210.941C1171.4 218.998 1162.49 224.735 1153.45 228.153C1144.42 231.571 1135.02 233.28 1125.25 233.28ZM1075.82 136.599L1075.45 131.106L1157.48 129.641V136.233L1075.82 136.599Z" fill="black"/>
</svg>
