<svg viewBox="0 0 24 24" fill="none" xmlns="http://www.w3.org/2000/svg">
  <rect width="24" height="24" rx="6" fill="black"/>
  <path d="M7 10.5c-1.93 0-3.5-1.57-3.5-3.5s1.57-3.5 3.5-3.5c1.1 0 2.07.51 2.71 1.3.64.79 1.59 1.2 2.29 1.2s1.65-.41 2.29-1.2c.64-.79 1.61-1.3 2.71-1.3 1.93 0 3.5 1.57 3.5 3.5s-1.57 3.5-3.5 3.5c-1.1 0-2.07-.51-2.71-1.3-.64-.79-1.59-1.2-2.29-1.2s-1.65.41-2.29 1.2c-.64.79-1.61 1.3-2.71 1.3Z" fill="white" />
  <circle cx="7" cy="17" r="3.5" fill="white" />
  <circle cx="17" cy="17" r="3.5" fill="white" />
</svg>
